<svg width="19" height="18" viewBox="0 0 19 18" fill="none" xmlns="http://www.w3.org/2000/svg">
<path d="M4.25 6C4.25 6.19891 4.32902 6.38968 4.46967 6.53033C4.61032 6.67098 4.80109 6.75 5 6.75C5.19891 6.75 5.38968 6.67098 5.53033 6.53033C5.67098 6.38968 5.75 6.19891 5.75 6V5.25H6.5C6.69891 5.25 6.88968 5.17098 7.03033 5.03033C7.17098 4.88968 7.25 4.69891 7.25 4.5C7.25 4.30109 7.17098 4.11032 7.03033 3.96967C6.88968 3.82902 6.69891 3.75 6.5 3.75H5.75V3C5.75 2.80109 5.67098 2.61032 5.53033 2.46967C5.38968 2.32902 5.19891 2.25 5 2.25C4.80109 2.25 4.61032 2.32902 4.46967 2.46967C4.32902 2.61032 4.25 2.80109 4.25 3V3.75H3.5C3.30109 3.75 3.11032 3.82902 2.96967 3.96967C2.82902 4.11032 2.75 4.30109 2.75 4.5C2.75 4.69891 2.82902 4.88968 2.96967 5.03033C3.11032 5.17098 3.30109 5.25 3.5 5.25H4.25V6ZM14 3.75H9.5C9.30109 3.75 9.11032 3.82902 8.96967 3.96967C8.82902 4.11032 8.75 4.30109 8.75 4.5C8.75 4.69891 8.82902 4.88968 8.96967 5.03033C9.11032 5.17098 9.30109 5.25 9.5 5.25H14C14.1989 5.25 14.3897 5.32902 14.5303 5.46967C14.671 5.61032 14.75 5.80109 14.75 6V13.29L13.5725 12.2025C13.4342 12.073 13.252 12.0007 13.0625 12H6.5C6.30109 12 6.11032 11.921 5.96967 11.7803C5.82902 11.6397 5.75 11.4489 5.75 11.25V9C5.75 8.80109 5.67098 8.61032 5.53033 8.46967C5.38968 8.32902 5.19891 8.25 5 8.25C4.80109 8.25 4.61032 8.32902 4.46967 8.46967C4.32902 8.61032 4.25 8.80109 4.25 9V11.25C4.25 11.8467 4.48705 12.419 4.90901 12.841C5.33097 13.2629 5.90326 13.5 6.5 13.5H12.77L15.02 15.5475C15.1507 15.6702 15.3209 15.742 15.5 15.75C15.6029 15.7489 15.7046 15.7285 15.8 15.69C15.9342 15.6314 16.0483 15.5349 16.1282 15.4123C16.2082 15.2897 16.2505 15.1464 16.25 15V6C16.25 5.40326 16.0129 4.83097 15.591 4.40901C15.169 3.98705 14.5967 3.75 14 3.75Z" fill="#2D264B"/>
</svg>
