<svg width="30" height="31" viewBox="0 0 30 31" fill="none" xmlns="http://www.w3.org/2000/svg">
<path d="M15 3C8.1125 3 2.5 8.6125 2.5 15.5C2.5 22.3875 8.1125 28 15 28C21.8875 28 27.5 22.3875 27.5 15.5C27.5 8.6125 21.8875 3 15 3ZM20 16.4375H15.9375V20.5C15.9375 21.0125 15.5125 21.4375 15 21.4375C14.4875 21.4375 14.0625 21.0125 14.0625 20.5V16.4375H10C9.4875 16.4375 9.0625 16.0125 9.0625 15.5C9.0625 14.9875 9.4875 14.5625 10 14.5625H14.0625V10.5C14.0625 9.9875 14.4875 9.5625 15 9.5625C15.5125 9.5625 15.9375 9.9875 15.9375 10.5V14.5625H20C20.5125 14.5625 20.9375 14.9875 20.9375 15.5C20.9375 16.0125 20.5125 16.4375 20 16.4375Z" fill="#292D32"/>
</svg>
