<svg width="18" height="19" viewBox="0 0 18 19" fill="none" xmlns="http://www.w3.org/2000/svg">
<path d="M6 2V4.25" stroke="#3E2DF8" stroke-width="1.5" stroke-miterlimit="10" stroke-linecap="round" stroke-linejoin="round"/>
<path d="M12 2V4.25" stroke="#3E2DF8" stroke-width="1.5" stroke-miterlimit="10" stroke-linecap="round" stroke-linejoin="round"/>
<path d="M2.625 7.31641H15.375" stroke="#3E2DF8" stroke-width="1.5" stroke-miterlimit="10" stroke-linecap="round" stroke-linejoin="round"/>
<path d="M13.5 17.75C15.1569 17.75 16.5 16.4069 16.5 14.75C16.5 13.0931 15.1569 11.75 13.5 11.75C11.8431 11.75 10.5 13.0931 10.5 14.75C10.5 16.4069 11.8431 17.75 13.5 17.75Z" stroke="#3E2DF8" stroke-width="1.5" stroke-miterlimit="10" stroke-linecap="round" stroke-linejoin="round"/>
<path d="M14.6173 14.7852H12.3823" stroke="#3E2DF8" stroke-width="1.5" stroke-miterlimit="10" stroke-linecap="round" stroke-linejoin="round"/>
<path d="M13.5 13.6914V15.9339" stroke="#3E2DF8" stroke-width="1.5" stroke-miterlimit="10" stroke-linecap="round" stroke-linejoin="round"/>
<path d="M15.75 6.875V12.77C15.2025 12.1475 14.4 11.75 13.5 11.75C11.8425 11.75 10.5 13.0925 10.5 14.75C10.5 15.3125 10.6575 15.845 10.935 16.295C11.0925 16.565 11.295 16.805 11.5275 17H6C3.375 17 2.25 15.5 2.25 13.25V6.875C2.25 4.625 3.375 3.125 6 3.125H12C14.625 3.125 15.75 4.625 15.75 6.875Z" stroke="#3E2DF8" stroke-width="1.5" stroke-miterlimit="10" stroke-linecap="round" stroke-linejoin="round"/>
<path d="M8.99686 10.7734H9.00359" stroke="#3E2DF8" stroke-width="2" stroke-linecap="round" stroke-linejoin="round"/>
<path d="M6.22049 10.7734H6.22723" stroke="#3E2DF8" stroke-width="2" stroke-linecap="round" stroke-linejoin="round"/>
<path d="M6.22049 13.0234H6.22723" stroke="#3E2DF8" stroke-width="2" stroke-linecap="round" stroke-linejoin="round"/>
</svg>
