<svg width="22" height="23" viewBox="0 0 22 23" fill="none" xmlns="http://www.w3.org/2000/svg">
<path fill-rule="evenodd" clip-rule="evenodd" d="M7 8.75C6.0335 8.75 5.25 9.5335 5.25 10.5V12.5C5.25 13.4665 6.0335 14.25 7 14.25H8.52297C9.23855 14.25 9.88204 13.8143 10.1478 13.1499L10.5078 12.25H12.4887C12.544 12.521 12.5084 12.8061 12.382 13.059L12.3292 13.1646C12.1439 13.5351 12.2941 13.9856 12.6646 14.1708C13.0351 14.3561 13.4856 14.2059 13.6708 13.8354L13.7236 13.7298C13.9555 13.2661 14.0485 12.7532 14.0026 12.25H15.4887C15.544 12.521 15.5084 12.8061 15.382 13.059L15.3292 13.1646C15.1439 13.5351 15.2941 13.9856 15.6646 14.1708C16.0351 14.3561 16.4856 14.2059 16.6708 13.8354L16.7236 13.7298C17.1107 12.9556 17.1107 12.0444 16.7236 11.2702C16.5642 10.9514 16.2384 10.75 15.882 10.75H13.0151C13.0047 10.7498 12.9942 10.7498 12.9837 10.75L10.5078 10.75L10.1478 9.85007C9.88204 9.18566 9.23855 8.75 8.52297 8.75H7ZM6.75 10.5C6.75 10.3619 6.86193 10.25 7 10.25H8.52297C8.62519 10.25 8.71712 10.3122 8.75509 10.4072L9.15509 11.4072C9.16701 11.437 9.17297 11.4684 9.17297 11.5C9.17297 11.5316 9.16701 11.563 9.15509 11.5928L8.75509 12.5928C8.71712 12.6878 8.62519 12.75 8.52297 12.75H7C6.86193 12.75 6.75 12.6381 6.75 12.5V10.5Z" fill="#2D264B"/>
<path fill-rule="evenodd" clip-rule="evenodd" d="M11 0.75C5.06294 0.75 0.25 5.56294 0.25 11.5C0.25 17.4371 5.06294 22.25 11 22.25C16.9371 22.25 21.75 17.4371 21.75 11.5C21.75 5.56294 16.9371 0.75 11 0.75ZM1.75 11.5C1.75 6.39137 5.89137 2.25 11 2.25C16.1086 2.25 20.25 6.39137 20.25 11.5C20.25 16.6086 16.1086 20.75 11 20.75C5.89137 20.75 1.75 16.6086 1.75 11.5Z" fill="#2D264B"/>
</svg>
