<svg width="25" height="24" viewBox="0 0 25 24" fill="none" xmlns="http://www.w3.org/2000/svg">
<path fill-rule="evenodd" clip-rule="evenodd" d="M12.3808 2C13.9985 2 15.6101 2.39907 17.042 3.15403C21.9172 5.72638 23.7921 11.7855 21.2215 16.6624C19.4682 19.9879 16.0161 22 12.3693 22C11.6569 22 10.9374 21.9234 10.2214 21.7648C9.8181 21.6749 9.56359 21.275 9.65254 20.8715C9.74148 20.468 10.1404 20.2152 10.5464 20.3024C14.2706 21.1305 18.1155 19.3431 19.897 15.9638C22.0828 11.8181 20.4888 6.66546 16.3437 4.47897C15.1266 3.83676 13.7563 3.4976 12.3799 3.4976H12.3702C7.6843 3.4976 3.87112 7.31119 3.87112 11.9987C3.86936 13.3641 4.20224 14.7234 4.83366 15.9312L5.02564 16.3065C5.26077 16.747 5.31273 17.294 5.16038 17.7891C4.94991 18.3441 4.77466 18.8841 4.63023 19.4215C5.19208 19.2523 5.8781 19.003 6.37391 18.8224L6.57733 18.7493C6.96218 18.6057 7.39457 18.8092 7.53547 19.1986C7.67638 19.5871 7.47471 20.017 7.08635 20.1571L6.88556 20.2302L6.85139 20.2426L6.85135 20.2426C6.11311 20.5101 5.11908 20.8703 4.44442 21.0213C4.3863 21.0336 4.32377 21.0415 4.26653 21.0398C3.80683 21.0398 3.52679 20.8539 3.37268 20.6971C3.13578 20.4566 3.02306 20.1192 3.03627 19.6946C3.03803 19.6461 3.0442 19.5959 3.05565 19.5475C3.23354 18.7899 3.46515 18.034 3.74519 17.3019C3.76544 17.2306 3.75312 17.1011 3.69587 16.9927L3.50301 16.6183C2.76415 15.2035 2.37227 13.6029 2.37403 11.9978C2.37403 6.48487 6.85826 2 12.3693 2H12.3808ZM6.77636 11.9998C6.77636 11.3435 7.30915 10.8105 7.96523 10.8105C8.62131 10.8105 9.1541 11.3435 9.1541 11.9998C9.1541 12.6552 8.62131 13.1882 7.96523 13.1882C7.30915 13.1882 6.77636 12.6552 6.77636 11.9998ZM13.5603 11.9979C13.5603 11.3424 13.0276 10.8086 12.3715 10.8086C11.7154 10.8086 11.1826 11.3424 11.1826 11.9979C11.1826 12.6533 11.7154 13.1871 12.3715 13.1871C13.0276 13.1871 13.5603 12.6533 13.5603 11.9979ZM16.7738 10.8086C17.4299 10.8086 17.9627 11.3424 17.9627 11.9979C17.9627 12.6533 17.4299 13.1871 16.7738 13.1871C16.1177 13.1871 15.585 12.6533 15.585 11.9979C15.585 11.3424 16.1177 10.8086 16.7738 10.8086Z" fill="black"/>
</svg>
