<svg width="103" height="103" viewBox="0 0 103 103" fill="none" xmlns="http://www.w3.org/2000/svg">
<path d="M3 51.5C3 24.7142 24.7142 3 51.5 3H100V51.5C100 78.2858 78.2858 100 51.5 100C24.7142 100 3 78.2858 3 51.5Z" fill="white" fill-opacity="0.2"/>
<path d="M101.5 3V1.5H100H51.5C23.8858 1.5 1.5 23.8858 1.5 51.5C1.5 79.1142 23.8858 101.5 51.5 101.5C79.1142 101.5 101.5 79.1142 101.5 51.5V3Z" stroke="#101828" stroke-opacity="0.5" stroke-width="3"/>
<circle cx="85" cy="84" r="12" fill="white"/>
<circle cx="85" cy="84" r="11.5" stroke="#101828" stroke-opacity="0.5"/>
<path d="M80.2 79.2H82L83.2 78H86.8L88 79.2H89.8C90.1183 79.2 90.4235 79.3264 90.6485 79.5515C90.8736 79.7765 91 80.0817 91 80.4V87.6C91 87.9183 90.8736 88.2235 90.6485 88.4485C90.4235 88.6736 90.1183 88.8 89.8 88.8H80.2C79.8817 88.8 79.5765 88.6736 79.3515 88.4485C79.1264 88.2235 79 87.9183 79 87.6V80.4C79 80.0817 79.1264 79.7765 79.3515 79.5515C79.5765 79.3264 79.8817 79.2 80.2 79.2ZM85 81C84.2044 81 83.4413 81.3161 82.8787 81.8787C82.3161 82.4413 82 83.2044 82 84C82 84.7956 82.3161 85.5587 82.8787 86.1213C83.4413 86.6839 84.2044 87 85 87C85.7956 87 86.5587 86.6839 87.1213 86.1213C87.6839 85.5587 88 84.7956 88 84C88 83.2044 87.6839 82.4413 87.1213 81.8787C86.5587 81.3161 85.7956 81 85 81ZM85 82.2C85.4774 82.2 85.9352 82.3896 86.2728 82.7272C86.6104 83.0648 86.8 83.5226 86.8 84C86.8 84.4774 86.6104 84.9352 86.2728 85.2728C85.9352 85.6104 85.4774 85.8 85 85.8C84.5226 85.8 84.0648 85.6104 83.7272 85.2728C83.3896 84.9352 83.2 84.4774 83.2 84C83.2 83.5226 83.3896 83.0648 83.7272 82.7272C84.0648 82.3896 84.5226 82.2 85 82.2Z" fill="#101828" fill-opacity="0.5"/>
</svg>
