<svg width="36" height="35" viewBox="0 0 36 35" fill="none" xmlns="http://www.w3.org/2000/svg">
<path d="M13.6276 14.5833C15.2384 14.5833 16.5443 13.2775 16.5443 11.6667C16.5443 10.0558 15.2384 8.75 13.6276 8.75C12.0168 8.75 10.7109 10.0558 10.7109 11.6667C10.7109 13.2775 12.0168 14.5833 13.6276 14.5833Z" stroke="#292D32" stroke-width="1.5" stroke-linecap="round" stroke-linejoin="round"/>
<path d="M19.4635 2.91602H13.6302C6.33854 2.91602 3.42188 5.83268 3.42188 13.1243V21.8743C3.42188 29.166 6.33854 32.0827 13.6302 32.0827H22.3802C29.6719 32.0827 32.5885 29.166 32.5885 21.8743V14.5827" stroke="#292D32" stroke-width="1.5" stroke-linecap="round" stroke-linejoin="round"/>
<path d="M23.4727 7.29102H31.4935" stroke="#292D32" stroke-width="1.5" stroke-linecap="round"/>
<path d="M27.4844 11.3021V3.28125" stroke="#292D32" stroke-width="1.5" stroke-linecap="round"/>
<path d="M4.39844 27.6352L11.588 22.8081C12.7401 22.0352 14.4026 22.1227 15.438 23.0122L15.9193 23.4352C17.0568 24.4122 18.8943 24.4122 20.0318 23.4352L26.0984 18.2289C27.2359 17.2518 29.0734 17.2518 30.2109 18.2289L32.588 20.2706" stroke="#292D32" stroke-width="1.5" stroke-linecap="round" stroke-linejoin="round"/>
</svg>
