<svg width="79" height="40" viewBox="0 0 79 40" fill="none" xmlns="http://www.w3.org/2000/svg">
<path d="M0.5 20C0.5 8.95431 9.45431 0 20.5 0H78.5V16C78.5 29.2548 67.7548 40 54.5 40H20.5C9.4543 40 0.5 31.0457 0.5 20Z" fill="#1732F7"/>
<path d="M14.7937 12.9656C17.4605 11.028 18.7939 10.0592 20.3167 10.0034C20.4389 9.99888 20.5611 9.99888 20.6833 10.0034C22.2061 10.0592 23.5395 11.028 26.2063 12.9656C28.8732 14.9031 30.2066 15.8719 30.7303 17.3029C30.7723 17.4177 30.8101 17.534 30.8436 17.6516C31.261 19.1171 30.7517 20.6846 29.7331 23.8197L28.012 29.1164C27.7386 29.958 26.9543 30.5279 26.0694 30.5279C24.9412 30.5279 24.0267 29.6133 24.0267 28.4852V25.7363C24.0267 24.6778 23.1686 23.8197 22.1101 23.8197H18.8899C17.8314 23.8197 16.9733 24.6778 16.9733 25.7363V28.4852C16.9733 29.6133 16.0588 30.5279 14.9307 30.5279C14.0457 30.5279 13.2614 29.958 12.988 29.1164L11.267 23.8197C10.2483 20.6846 9.73901 19.1171 10.1565 17.6516C10.1899 17.534 10.2277 17.4177 10.2697 17.3029C10.7934 15.8719 12.1269 14.9031 14.7937 12.9656Z" fill="white"/>
<path d="M37.4588 24.5V15.7727H38.7756V19.5653H43.1264V15.7727H44.4474V24.5H43.1264V20.6946H38.7756V24.5H37.4588ZM49.0199 24.6321C48.4063 24.6321 47.8707 24.4915 47.4134 24.2102C46.956 23.929 46.6009 23.5355 46.348 23.0298C46.0952 22.5241 45.9688 21.9332 45.9688 21.2571C45.9688 20.5781 46.0952 19.9844 46.348 19.4759C46.6009 18.9673 46.956 18.5724 47.4134 18.2912C47.8707 18.0099 48.4063 17.8693 49.0199 17.8693C49.6335 17.8693 50.169 18.0099 50.6264 18.2912C51.0838 18.5724 51.4389 18.9673 51.6918 19.4759C51.9446 19.9844 52.071 20.5781 52.071 21.2571C52.071 21.9332 51.9446 22.5241 51.6918 23.0298C51.4389 23.5355 51.0838 23.929 50.6264 24.2102C50.169 24.4915 49.6335 24.6321 49.0199 24.6321ZM49.0241 23.5625C49.4219 23.5625 49.7514 23.4574 50.0128 23.2472C50.2741 23.0369 50.4673 22.7571 50.5923 22.4077C50.7202 22.0582 50.7841 21.6733 50.7841 21.2528C50.7841 20.8352 50.7202 20.4517 50.5923 20.1023C50.4673 19.75 50.2741 19.4673 50.0128 19.2543C49.7514 19.0412 49.4219 18.9347 49.0241 18.9347C48.6236 18.9347 48.2912 19.0412 48.027 19.2543C47.7656 19.4673 47.571 19.75 47.4432 20.1023C47.3182 20.4517 47.2557 20.8352 47.2557 21.2528C47.2557 21.6733 47.3182 22.0582 47.4432 22.4077C47.571 22.7571 47.7656 23.0369 48.027 23.2472C48.2912 23.4574 48.6236 23.5625 49.0241 23.5625ZM53.4933 24.5V17.9545H54.7163V19.0199H54.7972C54.9336 18.6591 55.1566 18.3778 55.4663 18.1761C55.7759 17.9716 56.1467 17.8693 56.5785 17.8693C57.016 17.8693 57.3825 17.9716 57.6779 18.1761C57.9762 18.3807 58.1964 18.6619 58.3384 19.0199H58.4066C58.5629 18.6705 58.8114 18.392 59.1523 18.1847C59.4933 17.9744 59.8995 17.8693 60.3711 17.8693C60.9648 17.8693 61.4492 18.0554 61.8242 18.4276C62.2021 18.7997 62.391 19.3608 62.391 20.1108V24.5H61.1168V20.2301C61.1168 19.7869 60.9961 19.4659 60.7546 19.267C60.5131 19.0682 60.2248 18.9688 59.8896 18.9688C59.4748 18.9688 59.1523 19.0966 58.9222 19.3523C58.6921 19.6051 58.5771 19.9304 58.5771 20.3281V24.5H57.3072V20.1491C57.3072 19.794 57.1964 19.5085 56.9748 19.2926C56.7532 19.0767 56.4648 18.9688 56.1097 18.9688C55.8683 18.9688 55.6452 19.0327 55.4407 19.1605C55.239 19.2855 55.0756 19.4602 54.9506 19.6847C54.8285 19.9091 54.7674 20.169 54.7674 20.4645V24.5H53.4933ZM66.9197 24.6321C66.2749 24.6321 65.7195 24.4943 65.2536 24.2188C64.7905 23.9403 64.4325 23.5497 64.1797 23.0469C63.9297 22.5412 63.8047 21.9489 63.8047 21.2699C63.8047 20.5994 63.9297 20.0085 64.1797 19.4972C64.4325 18.9858 64.7848 18.5866 65.2365 18.2997C65.6911 18.0128 66.2223 17.8693 66.8303 17.8693C67.1996 17.8693 67.5575 17.9304 67.9041 18.0526C68.2507 18.1747 68.5618 18.3665 68.8374 18.6278C69.1129 18.8892 69.3303 19.2287 69.4893 19.6463C69.6484 20.0611 69.728 20.5653 69.728 21.1591V21.6108H64.5249V20.6562H68.4794C68.4794 20.321 68.4112 20.0241 68.2749 19.7656C68.1385 19.5043 67.9467 19.2983 67.6996 19.1477C67.4553 18.9972 67.1683 18.9219 66.8388 18.9219C66.4808 18.9219 66.1683 19.0099 65.9013 19.1861C65.6371 19.3594 65.4325 19.5866 65.2876 19.8679C65.1456 20.1463 65.0746 20.4489 65.0746 20.7756V21.5213C65.0746 21.9588 65.1513 22.331 65.3047 22.6378C65.4609 22.9446 65.6783 23.179 65.9567 23.3409C66.2351 23.5 66.5604 23.5795 66.9325 23.5795C67.174 23.5795 67.3942 23.5455 67.593 23.4773C67.7919 23.4062 67.9638 23.3011 68.1087 23.1619C68.2536 23.0227 68.3643 22.8509 68.4411 22.6463L69.647 22.8636C69.5504 23.2187 69.3771 23.5298 69.1271 23.7969C68.88 24.0611 68.5689 24.267 68.1939 24.4148C67.8217 24.5597 67.397 24.6321 66.9197 24.6321Z" fill="white"/>
</svg>
