<svg width="23" height="23" viewBox="0 0 23 23" fill="none" xmlns="http://www.w3.org/2000/svg">
<path d="M12.2495 16.8197C12.2495 16.4054 11.9137 16.0697 11.4995 16.0697C11.0853 16.0697 10.7495 16.4054 10.7495 16.8197V18.8197C10.7495 19.2339 11.0853 19.5697 11.4995 19.5697C11.9137 19.5697 12.2495 19.2339 12.2495 18.8197V16.8197Z" fill="#130F26"/>
<path fill-rule="evenodd" clip-rule="evenodd" d="M11.7103 0.253865C11.5698 0.248712 11.4292 0.248712 11.2887 0.253865C10.3613 0.287886 9.52627 0.603234 8.61066 1.12818C7.71839 1.63974 6.69116 2.38608 5.38778 3.33305L5.31693 3.38453C4.01353 4.33149 2.98627 5.07783 2.22402 5.76835C1.44183 6.47693 0.883865 7.17368 0.564934 8.04515C0.51662 8.17717 0.473165 8.31091 0.434655 8.44611C0.180434 9.33861 0.222297 10.2303 0.438607 11.2633C0.649405 12.27 1.04179 13.4776 1.53964 15.0098L1.56671 15.0931C2.06455 16.6253 2.45692 17.8329 2.87809 18.7712C3.31028 19.7341 3.80051 20.4801 4.53078 21.0527C4.6414 21.1394 4.75517 21.2221 4.87185 21.3005C5.60656 21.7942 6.42384 22.0315 7.40933 22.1509C8.45766 22.2779 9.76837 22.2779 11.4493 22.2779H11.5497C13.2307 22.2779 14.5414 22.2779 15.5897 22.1509C16.5752 22.0315 17.3925 21.7942 18.1272 21.3005C18.2439 21.2221 18.3576 21.1394 18.4683 21.0527C19.1985 20.4801 19.6888 19.7341 20.1209 18.7712C20.5421 17.8329 20.9345 16.6253 21.4323 15.093L21.4594 15.0097C21.9572 13.4776 22.3496 12.2699 22.5604 11.2633C22.7767 10.2303 22.8186 9.33861 22.5644 8.44611C22.5259 8.31091 22.4824 8.17717 22.4341 8.04515C22.1152 7.17368 21.5572 6.47693 20.775 5.76835C20.0128 5.07782 18.9855 4.33149 17.6821 3.38452L17.6112 3.33303C16.3079 2.38607 15.2806 1.63973 14.3884 1.12818C13.4728 0.603234 12.6377 0.287886 11.7103 0.253865ZM11.3437 1.75286C11.4475 1.74905 11.5515 1.74905 11.6553 1.75286C12.2508 1.7747 12.8438 1.97167 13.6423 2.42948C14.4561 2.89603 15.4184 3.59396 16.765 4.57232C18.1116 5.55068 19.0728 6.25026 19.768 6.88002C20.4501 7.49798 20.8207 8.00112 21.0255 8.56067C21.0612 8.65824 21.0933 8.75709 21.1218 8.85703C21.285 9.43007 21.2809 10.055 21.0923 10.9558C20.9 11.874 20.5336 13.0049 20.0193 14.5879C19.5049 16.1709 19.1366 17.3012 18.7525 18.157C18.3756 18.9967 18.0116 19.5046 17.5427 19.8723C17.4609 19.9364 17.3768 19.9975 17.2906 20.0555C16.995 20.254 16.6635 20.4015 16.2495 20.5091V16.8197C16.2495 14.1963 14.1229 12.0697 11.4995 12.0697C8.87617 12.0697 6.74952 14.1963 6.74952 16.8197V20.5091C6.33556 20.4015 6.00399 20.254 5.70845 20.0555C5.6222 19.9975 5.53811 19.9364 5.45635 19.8723C4.98747 19.5046 4.62347 18.9967 4.24656 18.157C3.86244 17.3012 3.49411 16.1709 2.97976 14.5879C2.46541 13.0049 2.09902 11.874 1.90677 10.9558C1.71812 10.055 1.71405 9.43007 1.87727 8.85703C1.90574 8.7571 1.93786 8.65824 1.97357 8.56067C2.17834 8.00112 2.54893 7.49798 3.23108 6.88002C3.92627 6.25026 4.88742 5.55068 6.23402 4.57232C7.58061 3.59396 8.54296 2.89603 9.35673 2.42948C10.1552 1.97167 10.7483 1.7747 11.3437 1.75286ZM11.4995 13.5697C13.2944 13.5697 14.7495 15.0247 14.7495 16.8197V20.7217C13.9061 20.7771 12.8628 20.7779 11.4995 20.7779C10.1362 20.7779 9.09292 20.7771 8.24952 20.7218V16.8197C8.24952 15.0247 9.70459 13.5697 11.4995 13.5697Z" fill="#130F26"/>
</svg>
