<svg width="16" height="16" viewBox="0 0 16 16" fill="none" xmlns="http://www.w3.org/2000/svg">
<path d="M5.75 14.375L7.75452 10.8285C7.8518 10.6564 7.93721 10.5053 8.01365 10.3716M8.01365 10.3716C8.25057 9.9573 8.40128 9.71045 8.55182 9.52521C9.79835 7.99138 12.0214 7.68836 13.633 8.83261C13.8887 9.01418 14.1732 9.29816 14.7388 9.86375M8.01365 10.3716L7.625 10.25C6.72836 10.0707 6.28004 9.98101 5.86856 9.98975C4.76739 10.0131 3.73217 10.5194 3.03765 11.3743C2.77813 11.6937 2.57367 12.1027 2.16474 12.9205L2.08237 13.0853L1.99156 13.2387M14.7388 9.86375C14.75 9.32037 14.75 8.70427 14.75 8C14.75 5.1877 14.75 3.78155 14.0338 2.79581C13.8025 2.47745 13.5225 2.19748 13.2042 1.96619C12.2184 1.25 10.8123 1.25 8 1.25C5.1877 1.25 3.78155 1.25 2.79581 1.96619C2.47745 2.19748 2.19748 2.47745 1.96619 2.79581C1.25 3.78155 1.25 5.1877 1.25 8C1.25 10.8123 1.25 12.2184 1.96619 13.2042C1.97458 13.2157 1.98304 13.2273 1.99156 13.2387M14.7388 9.86375C14.7051 11.4902 14.5706 12.4653 14.0338 13.2042C13.8025 13.5225 13.5225 13.8025 13.2042 14.0338C12.2184 14.75 10.8123 14.75 8 14.75C5.1877 14.75 3.78155 14.75 2.79581 14.0338C2.489 13.8109 2.21786 13.5428 1.99156 13.2387M5.75 5.75C5.75 6.57843 6.42157 7.25 7.25 7.25C8.07843 7.25 8.75 6.57843 8.75 5.75C8.75 4.92157 8.07843 4.25 7.25 4.25C6.42157 4.25 5.75 4.92157 5.75 5.75Z" stroke="#5D70F9" stroke-linecap="round"/>
</svg>
