<svg width="25" height="24" viewBox="0 0 25 24" fill="none" xmlns="http://www.w3.org/2000/svg">
<path d="M12.6999 11.8022L11.2899 13.2122C10.5099 13.9922 10.5099 15.2622 11.2899 16.0422C12.0699 16.8222 13.3399 16.8222 14.1199 16.0422L16.3399 13.8222C17.8999 12.2622 17.8999 9.73219 16.3399 8.16219C14.7799 6.60219 12.2499 6.60219 10.6799 8.16219L8.25988 10.5822C6.91988 11.9222 6.91988 14.0922 8.25988 15.4322" stroke="#5D70F9" stroke-width="1.5" stroke-linecap="round" stroke-linejoin="round"/>
<path d="M12.5 22C18.0228 22 22.5 17.5228 22.5 12C22.5 6.47715 18.0228 2 12.5 2C6.97715 2 2.5 6.47715 2.5 12C2.5 17.5228 6.97715 22 12.5 22Z" stroke="#5D70F9" stroke-width="1.5" stroke-linecap="round" stroke-linejoin="round"/>
</svg>
