<svg width="15" height="18" viewBox="0 0 15 18" fill="none" xmlns="http://www.w3.org/2000/svg">
<path fill-rule="evenodd" clip-rule="evenodd" d="M7.29997 0H7.32863C11.3534 0.0158165 14.6158 3.29961 14.5999 7.31925V7.39909C14.5456 10.2717 12.8187 12.6554 11.3798 14.1489C10.9703 14.576 10.5344 14.9857 10.085 15.3683C9.81575 15.598 9.41153 15.5664 9.18152 15.2975C8.95152 15.0279 8.98394 14.6242 9.25317 14.3945C9.66945 14.0397 10.0744 13.6586 10.4552 13.2617C11.7358 11.9331 13.2712 9.83256 13.3179 7.37574C13.3307 4.00081 10.6423 1.29318 7.32335 1.27963H7.29997C3.99236 1.27963 1.29484 3.96089 1.28202 7.26653C1.33858 8.89939 1.8906 10.4517 2.87927 11.7539C4.03308 13.2903 5.78342 14.9172 7.44703 16.0002C7.74415 16.193 7.82786 16.5892 7.63405 16.8859C7.51188 17.0742 7.30601 17.1767 7.09636 17.1767C6.97645 17.1767 6.85579 17.1435 6.74719 17.0727C4.96594 15.9136 3.09118 14.1708 1.85516 12.5251C0.708128 11.0135 0.0663634 9.20969 0 7.31097C0.0158367 3.25141 3.288 0 7.29997 0ZM5.80154 7.39849C5.80154 8.22171 6.47271 8.89278 7.29773 8.89278C8.12275 8.89278 8.79392 8.22171 8.79392 7.39849C8.79392 6.57453 8.12275 5.90346 7.29773 5.90346C6.94404 5.90346 6.65672 5.61726 6.65672 5.26402C6.65672 4.91003 6.94404 4.62383 7.29773 4.62383C8.82936 4.62383 10.0759 5.86806 10.0759 7.39849C10.0759 8.92817 8.82936 10.1724 7.29773 10.1724C5.76609 10.1724 4.51952 8.92817 4.51952 7.39849C4.51952 7.04451 4.80684 6.7583 5.16053 6.7583C5.51421 6.7583 5.80154 7.04451 5.80154 7.39849Z" fill="#555050"/>
</svg>
