<svg width="24" height="24" viewBox="0 0 24 24" fill="none" xmlns="http://www.w3.org/2000/svg">
<path fill-rule="evenodd" clip-rule="evenodd" d="M12.0067 2C13.6245 2 15.2361 2.39907 16.668 3.15403C21.5432 5.72638 23.4181 11.7855 20.8475 16.6624C19.0942 19.9879 15.642 22 11.9953 22C11.2829 22 10.5634 21.9234 9.84741 21.7648C9.44408 21.6749 9.18957 21.275 9.27851 20.8715C9.36746 20.468 9.76639 20.2152 10.1724 20.3024C13.8966 21.1305 17.7415 19.3431 19.523 15.9638C21.7088 11.8181 20.1148 6.66546 15.9696 4.47897C14.7526 3.83676 13.3823 3.4976 12.0059 3.4976H11.9962C7.31028 3.4976 3.4971 7.31119 3.4971 11.9987C3.49534 13.3641 3.82822 14.7234 4.45964 15.9312L4.65162 16.3065C4.88675 16.747 4.93871 17.294 4.78636 17.7891C4.57588 18.3441 4.40064 18.8841 4.25621 19.4215C4.81806 19.2523 5.50408 19.003 5.99988 18.8224L6.20331 18.7493C6.58815 18.6057 7.02055 18.8092 7.16145 19.1986C7.30235 19.5871 7.10069 20.017 6.71232 20.1571L6.51154 20.2302L6.47736 20.2426L6.47733 20.2426C5.73908 20.5101 4.74506 20.8703 4.0704 21.0213C4.01227 21.0336 3.94975 21.0415 3.89251 21.0398C3.43281 21.0398 3.15277 20.8539 2.99865 20.6971C2.76176 20.4566 2.64904 20.1192 2.66225 19.6946C2.66401 19.6461 2.67017 19.5959 2.68162 19.5475C2.85951 18.7899 3.09112 18.034 3.37117 17.3019C3.39142 17.2306 3.37909 17.1011 3.32185 16.9927L3.12899 16.6183C2.39013 15.2035 1.99824 13.6029 2.00001 11.9978C2.00001 6.48487 6.48424 2 11.9953 2H12.0067ZM6.40234 11.9998C6.40234 11.3435 6.93513 10.8105 7.59121 10.8105C8.24728 10.8105 8.78007 11.3435 8.78007 11.9998C8.78007 12.6552 8.24728 13.1882 7.59121 13.1882C6.93513 13.1882 6.40234 12.6552 6.40234 11.9998ZM13.1863 11.9979C13.1863 11.3424 12.6535 10.8086 11.9975 10.8086C11.3414 10.8086 10.8086 11.3424 10.8086 11.9979C10.8086 12.6533 11.3414 13.1871 11.9975 13.1871C12.6535 13.1871 13.1863 12.6533 13.1863 11.9979ZM16.3998 10.8086C17.0559 10.8086 17.5887 11.3424 17.5887 11.9979C17.5887 12.6533 17.0559 13.1871 16.3998 13.1871C15.7437 13.1871 15.2109 12.6533 15.2109 11.9979C15.2109 11.3424 15.7437 10.8086 16.3998 10.8086Z" fill="#1732F7"/>
</svg>
