<svg width="25" height="24" viewBox="0 0 25 24" fill="none" xmlns="http://www.w3.org/2000/svg">
<path d="M2.5 15.3V9C2.5 5.5 4.5 4 7.5 4H17.5C20.5 4 22.5 5.5 22.5 9V15C22.5 18.5 20.5 20 17.5 20H9" stroke="#12299C" stroke-miterlimit="10" stroke-linecap="round" stroke-linejoin="round"/>
<path d="M12.5 14.5C13.8807 14.5 15 13.3807 15 12C15 10.6193 13.8807 9.5 12.5 9.5C11.1193 9.5 10 10.6193 10 12C10 13.3807 11.1193 14.5 12.5 14.5Z" stroke="#12299C" stroke-miterlimit="10" stroke-linecap="round" stroke-linejoin="round"/>
<path d="M19 9.5V14.5" stroke="#12299C" stroke-miterlimit="10" stroke-linecap="round" stroke-linejoin="round"/>
<path d="M9.5 18C9.5 18.75 9.28998 19.46 8.91998 20.06C8.22998 21.22 6.96 22 5.5 22C4.04 22 2.77002 21.22 2.08002 20.06C1.71002 19.46 1.5 18.75 1.5 18C1.5 15.79 3.29 14 5.5 14C7.71 14 9.5 15.79 9.5 18Z" stroke="#12299C" stroke-miterlimit="10" stroke-linecap="round" stroke-linejoin="round"/>
<path d="M6.57092 19.0397L4.46094 16.9297" stroke="#12299C" stroke-width="1.5" stroke-miterlimit="10" stroke-linecap="round" stroke-linejoin="round"/>
<path d="M6.53967 16.9609L4.42969 19.0709" stroke="#12299C" stroke-miterlimit="10" stroke-linecap="round" stroke-linejoin="round"/>
</svg>
