<svg width="25" height="24" viewBox="0 0 25 24" fill="none" xmlns="http://www.w3.org/2000/svg">
<path d="M12.5196 2.90625C9.2096 2.90625 6.5196 5.59625 6.5196 8.90625V11.7963C6.5196 12.4063 6.2596 13.3362 5.9496 13.8562L4.7996 15.7663C4.0896 16.9463 4.5796 18.2563 5.8796 18.6963C10.1896 20.1363 14.8396 20.1363 19.1496 18.6963C20.3596 18.2963 20.8896 16.8663 20.2296 15.7663L19.0796 13.8562C18.7796 13.3362 18.5196 12.4063 18.5196 11.7963V8.90625C18.5196 5.60625 15.8196 2.90625 12.5196 2.90625Z" stroke="#5D70F9" stroke-width="1.5" stroke-miterlimit="10" stroke-linecap="round"/>
<path d="M14.3699 3.1975C14.0599 3.1075 13.7399 3.0375 13.4099 2.9975C12.4499 2.8775 11.5299 2.9475 10.6699 3.1975C10.9599 2.4575 11.6799 1.9375 12.5199 1.9375C13.3599 1.9375 14.0799 2.4575 14.3699 3.1975Z" stroke="#5D70F9" stroke-width="1.5" stroke-miterlimit="10" stroke-linecap="round" stroke-linejoin="round"/>
<path d="M15.5195 19.0625C15.5195 20.7125 14.1695 22.0625 12.5195 22.0625C11.6995 22.0625 10.9395 21.7225 10.3995 21.1825C9.85953 20.6425 9.51953 19.8825 9.51953 19.0625" stroke="#5D70F9" stroke-width="1.5" stroke-miterlimit="10"/>
</svg>
