<svg width="26" height="18" viewBox="0 0 26 18" fill="none" xmlns="http://www.w3.org/2000/svg">
<path d="M17.7273 7.71429C19.6891 7.71429 21.2609 5.99143 21.2609 3.85714C21.2609 1.72286 19.6891 0 17.7273 0C15.7655 0 14.1818 1.72286 14.1818 3.85714C14.1818 5.99143 15.7655 7.71429 17.7273 7.71429ZM8.27273 7.71429C10.2345 7.71429 11.8064 5.99143 11.8064 3.85714C11.8064 1.72286 10.2345 0 8.27273 0C6.31091 0 4.72727 1.72286 4.72727 3.85714C4.72727 5.99143 6.31091 7.71429 8.27273 7.71429ZM8.27273 10.2857C5.51909 10.2857 0 11.79 0 14.7857V18H16.5455V14.7857C16.5455 11.79 11.0264 10.2857 8.27273 10.2857ZM17.7273 10.2857C17.3845 10.2857 16.9945 10.3114 16.5809 10.35C17.9518 11.43 18.9091 12.8829 18.9091 14.7857V18H26V14.7857C26 11.79 20.4809 10.2857 17.7273 10.2857Z" fill="#B1B5C3"/>
</svg>
