<svg width="110" height="19" viewBox="0 0 110 19" fill="none" xmlns="http://www.w3.org/2000/svg">
<path d="M15.5487 1.82422H0.932921C0.466461 1.82422 0.0388717 2.20422 0.0388717 2.69822V4.29422C0.0388717 4.78822 0.466461 5.20622 0.932921 5.20622H15.5487C16.054 5.20622 16.4427 4.78822 16.4816 4.29422V2.73622C16.4816 2.20422 16.054 1.82422 15.5487 1.82422ZM15.5487 10.7922H0.932921C0.699691 10.7922 0.466461 10.9062 0.272102 11.0582C0.116615 11.2102 0 11.4382 0 11.7042V13.3002C0 13.7942 0.427589 14.2122 0.89405 14.2122H15.5098C16.0152 14.2122 16.4039 13.8322 16.4427 13.3002V11.7042C16.4816 11.1722 16.054 10.7922 15.5487 10.7922ZM9.17373 15.2382H0.932921C0.699691 15.2382 0.466461 15.3142 0.310974 15.5042C0.155487 15.6562 0.0388717 15.8842 0.0388717 16.1502V17.7462C0.0388717 18.2402 0.466461 18.6582 0.932921 18.6582H9.13486C9.64019 18.6582 10.0289 18.2402 10.0289 17.7462V16.1122C10.0678 15.6562 9.67906 15.2382 9.17373 15.2382ZM16.4816 6.30822H0.932921C0.699691 6.30822 0.466461 6.38422 0.310974 6.57422C0.155487 6.72622 0.0388717 6.95422 0.0388717 7.22022V8.81622C0.0388717 9.31022 0.466461 9.72822 0.932921 9.72822H16.4427C16.9481 9.72822 17.3368 9.31022 17.3368 8.81622V7.22022C17.3757 6.68822 16.9869 6.30822 16.4816 6.30822Z" fill="#00C3F7"/>
<path d="M33.4681 5.434C33.0016 4.978 32.4963 4.636 31.8744 4.37C31.2913 4.104 30.6305 3.99 29.9696 3.99C29.3477 3.99 28.7258 4.104 28.1427 4.37C27.754 4.56 27.4041 4.788 27.132 5.092V4.826C27.132 4.674 27.0543 4.56 26.9765 4.446C26.8599 4.332 26.7433 4.256 26.5878 4.256H24.5276C24.3721 4.256 24.2166 4.332 24.1389 4.446C24.0223 4.56 23.9834 4.674 23.9834 4.826V18.126C23.9834 18.278 24.0611 18.392 24.1389 18.506C24.2555 18.62 24.3721 18.658 24.5276 18.658H26.5878C26.7433 18.658 26.8599 18.62 26.9765 18.506C27.0931 18.392 27.132 18.278 27.132 18.126V13.566C27.443 13.87 27.7928 14.136 28.2204 14.25C28.7646 14.44 29.3477 14.554 29.8919 14.554C30.5527 14.554 31.2135 14.44 31.7966 14.174C32.4186 13.946 32.9628 13.566 33.3904 13.11C33.8568 12.616 34.2455 12.046 34.4788 11.438C34.7509 10.754 34.9064 9.994 34.8675 9.272C34.8675 8.512 34.7509 7.79 34.4788 7.068C34.3233 6.498 33.9346 5.928 33.4681 5.434ZM31.6411 10.26C31.5245 10.526 31.369 10.792 31.1747 11.02C30.7471 11.476 30.164 11.704 29.5421 11.704C29.2311 11.704 28.9201 11.628 28.648 11.514C28.3759 11.4 28.1038 11.21 27.9094 11.02C27.7151 10.792 27.5207 10.526 27.4041 10.26C27.1709 9.652 27.1709 9.006 27.4041 8.398C27.5207 8.132 27.6762 7.866 27.9094 7.638C28.1427 7.41 28.3759 7.258 28.648 7.106C28.9201 6.992 29.2311 6.916 29.5421 6.916C29.853 6.916 30.164 6.992 30.475 7.106C30.7471 7.22 30.9803 7.41 31.2135 7.6C31.4079 7.828 31.5634 8.056 31.68 8.36C31.8744 8.968 31.8744 9.652 31.6411 10.26ZM46.1014 4.294H44.0412C43.8857 4.294 43.7691 4.37 43.6525 4.446C43.5359 4.56 43.497 4.712 43.497 4.864V5.092C43.2249 4.788 42.9139 4.56 42.5641 4.408C42.0199 4.142 41.3979 4.028 40.776 4.028C39.4543 4.028 38.1716 4.56 37.2387 5.472C36.7722 5.966 36.3835 6.536 36.1114 7.144C35.8004 7.828 35.6838 8.588 35.6838 9.348C35.6838 10.108 35.8004 10.868 36.1114 11.552C36.3835 12.16 36.7722 12.73 37.2387 13.224C38.1716 14.136 39.4155 14.668 40.7371 14.668C41.3591 14.668 41.981 14.554 42.5252 14.288C42.8751 14.098 43.2249 13.87 43.4581 13.604V13.87C43.4581 14.022 43.5359 14.136 43.6136 14.25C43.7302 14.326 43.8469 14.402 44.0023 14.402H46.0625C46.218 14.402 46.3346 14.326 46.4513 14.25C46.5679 14.136 46.6067 14.022 46.6067 13.87V4.864C46.6067 4.712 46.5679 4.598 46.4513 4.484C46.3735 4.332 46.2569 4.294 46.1014 4.294ZM43.3027 10.222C43.186 10.488 43.0305 10.754 42.8362 10.982C42.6418 11.172 42.3697 11.362 42.0976 11.514C41.5145 11.78 40.8537 11.78 40.2707 11.514C39.9986 11.4 39.7264 11.21 39.5321 10.982C39.3377 10.754 39.1434 10.488 39.0656 10.222C38.8324 9.614 38.8324 8.968 39.0656 8.36C39.1822 8.094 39.3377 7.828 39.5321 7.6C39.7264 7.372 39.9986 7.22 40.2707 7.068C40.8537 6.802 41.5145 6.802 42.0976 7.068C42.3697 7.182 42.603 7.372 42.8362 7.562C43.0305 7.79 43.186 8.018 43.3027 8.322C43.5748 8.968 43.5748 9.652 43.3027 10.222ZM66.5868 9.044C66.2758 8.778 65.9649 8.588 65.5762 8.436C65.1874 8.284 64.7987 8.17 64.3711 8.094L62.8163 7.79C62.4275 7.714 62.1166 7.6 61.9611 7.486C61.8445 7.41 61.7667 7.258 61.7667 7.106C61.7667 6.954 61.8445 6.802 62.0777 6.688C62.3498 6.536 62.6608 6.46 62.9329 6.498C63.3216 6.498 63.7492 6.574 64.099 6.726C64.4489 6.878 64.7987 7.068 65.1097 7.258C65.5761 7.524 65.9649 7.486 66.237 7.182L66.9755 6.346C67.131 6.194 67.2088 6.004 67.2088 5.814C67.2088 5.624 67.0921 5.396 66.9367 5.282C66.6257 5.016 66.1204 4.712 65.4207 4.446C64.7598 4.18 63.9047 4.028 62.894 4.028C62.2721 4.028 61.689 4.104 61.1059 4.294C60.6006 4.446 60.1341 4.674 59.7454 4.978C59.3567 5.244 59.0846 5.624 58.8513 6.042C58.657 6.46 58.5404 6.878 58.5404 7.334C58.5404 8.17 58.8125 8.854 59.3178 9.348C59.8231 9.842 60.484 10.184 61.3391 10.336L62.9717 10.678C63.3216 10.754 63.6714 10.83 64.0213 10.982C64.2156 11.058 64.3323 11.21 64.3323 11.438C64.3323 11.628 64.2545 11.78 64.0213 11.932C63.8269 12.084 63.4771 12.16 63.0495 12.16C62.6219 12.16 62.1554 12.084 61.7667 11.894C61.378 11.704 61.0282 11.476 60.7172 11.21C60.5617 11.096 60.4062 11.02 60.2507 10.944C60.0564 10.906 59.8231 10.944 59.5899 11.134L58.6959 11.818C58.4626 12.008 58.3071 12.312 58.3849 12.578C58.4238 12.882 58.6959 13.148 59.1234 13.49C60.2507 14.25 61.6112 14.63 62.9717 14.592C63.5937 14.592 64.2545 14.516 64.8376 14.326C65.3818 14.174 65.8482 13.946 66.2758 13.604C66.6646 13.3 67.0144 12.92 67.2088 12.502C67.442 12.084 67.5197 11.628 67.5197 11.134C67.5197 10.716 67.442 10.298 67.2476 9.88C67.0921 9.614 66.8589 9.31 66.5868 9.044ZM75.5273 11.476C75.4496 11.324 75.2552 11.21 75.0608 11.172C74.8665 11.172 74.6721 11.248 74.5166 11.324C74.2834 11.476 73.9724 11.59 73.6615 11.59C73.5837 11.59 73.4671 11.59 73.3505 11.552C73.2339 11.552 73.1561 11.476 73.0784 11.4C73.0006 11.324 72.9229 11.21 72.8452 11.096C72.7674 10.944 72.7285 10.754 72.7674 10.564V6.916H75.4496C75.6051 6.916 75.7605 6.84 75.8772 6.726C75.9938 6.612 76.0715 6.498 76.0715 6.346V4.788C76.0715 4.636 75.9938 4.484 75.8772 4.408C75.7605 4.294 75.6439 4.256 75.4884 4.256H72.8063V1.786C72.8063 1.634 72.7674 1.482 72.6508 1.406C72.5342 1.292 72.4176 1.254 72.2621 1.254H70.2019C70.0464 1.254 69.8909 1.292 69.8132 1.406C69.6966 1.52 69.6577 1.672 69.6577 1.786V4.294H68.4915C68.336 4.294 68.1806 4.37 68.1028 4.484C67.9862 4.598 67.9473 4.712 67.9473 4.864V6.422C67.9473 6.574 67.9862 6.688 68.1028 6.802C68.1806 6.916 68.336 6.992 68.4915 6.992H69.6577V11.324C69.6577 11.856 69.7354 12.35 69.9687 12.806C70.163 13.186 70.4351 13.528 70.7461 13.794C71.0571 14.06 71.4458 14.25 71.8734 14.364C72.301 14.478 72.7285 14.554 73.1561 14.554C73.7392 14.554 74.2834 14.478 74.8276 14.288C75.3329 14.136 75.7994 13.832 76.1493 13.49C76.3825 13.262 76.4214 12.882 76.227 12.616L75.5273 11.476ZM86.8001 4.294H84.7399C84.5844 4.294 84.4678 4.37 84.3512 4.446C84.2346 4.56 84.1957 4.712 84.1957 4.864V5.092C83.9236 4.788 83.6126 4.56 83.2628 4.408C82.7186 4.142 82.0966 4.028 81.4747 4.028C80.153 4.028 78.9091 4.56 77.9762 5.472C77.5098 5.966 77.1211 6.536 76.8489 7.144C76.538 7.828 76.4214 8.588 76.4214 9.31C76.4214 10.07 76.538 10.792 76.8489 11.514C77.1211 12.122 77.5098 12.692 77.9762 13.186C78.9091 14.098 80.153 14.63 81.4747 14.63C82.0966 14.63 82.7186 14.516 83.2628 14.25C83.6126 14.06 83.9625 13.832 84.1957 13.566V13.832C84.1957 13.984 84.2346 14.098 84.3512 14.212C84.4678 14.326 84.5844 14.364 84.7399 14.364H86.8001C87.1111 14.364 87.3443 14.136 87.3443 13.832V4.864C87.3443 4.712 87.3054 4.598 87.1888 4.484C87.0722 4.332 86.9556 4.294 86.8001 4.294ZM84.0013 10.222C83.8847 10.488 83.7293 10.754 83.5349 10.982C83.3017 11.172 83.0684 11.362 82.7963 11.514C82.5242 11.628 82.1744 11.704 81.8634 11.704C81.5524 11.704 81.2415 11.628 80.9694 11.514C80.6973 11.4 80.4252 11.21 80.2308 10.982C80.0364 10.754 79.8421 10.488 79.7643 10.222C79.5311 9.614 79.5311 8.968 79.7643 8.36C79.8809 8.094 80.0364 7.828 80.2308 7.6C80.464 7.372 80.6973 7.22 80.9694 7.068C81.2415 6.954 81.5524 6.878 81.8634 6.878C82.1744 6.878 82.4853 6.954 82.7963 7.068C83.0684 7.182 83.3017 7.372 83.5349 7.562C83.7293 7.79 83.9236 8.018 84.0013 8.322C84.2734 8.968 84.2734 9.652 84.0013 10.222ZM98.0729 11.324L96.9068 10.45C96.6735 10.26 96.4792 10.222 96.2848 10.298C96.1293 10.374 95.9738 10.488 95.8572 10.602C95.5851 10.906 95.313 11.172 94.9632 11.4C94.6133 11.59 94.2246 11.704 93.797 11.666C93.3306 11.666 92.903 11.552 92.5143 11.286C92.1255 11.02 91.8534 10.64 91.698 10.222C91.5813 9.918 91.5425 9.614 91.5425 9.31C91.5425 9.006 91.5813 8.664 91.698 8.36C91.8146 8.094 91.97 7.828 92.1644 7.6C92.3976 7.372 92.6309 7.22 92.903 7.106C93.1751 6.992 93.5249 6.916 93.8359 6.916C94.2246 6.916 94.6522 6.992 94.9632 7.182C95.313 7.41 95.5851 7.676 95.8572 7.98C95.9738 8.094 96.1293 8.208 96.2848 8.284C96.4792 8.36 96.6735 8.322 96.9068 8.132L98.0729 7.258C98.2284 7.144 98.345 7.03 98.3839 6.878C98.4616 6.688 98.4228 6.498 98.345 6.346C97.8785 5.662 97.2566 5.092 96.5181 4.674C95.7406 4.256 94.8077 4.028 93.7582 4.028C93.0196 4.028 92.281 4.18 91.6202 4.446C90.9594 4.712 90.3763 5.092 89.871 5.586C89.3656 6.08 88.9769 6.65 88.7048 7.258C88.1606 8.588 88.1606 10.108 88.7048 11.438C88.9769 12.084 89.3656 12.654 89.871 13.11C90.9205 14.098 92.281 14.63 93.7582 14.63C94.8077 14.63 95.7406 14.402 96.5181 13.984C97.2566 13.566 97.8785 12.996 98.345 12.312C98.4616 12.16 98.4616 11.97 98.3839 11.78C98.3061 11.59 98.1895 11.438 98.0729 11.324ZM108.996 13.414L105.77 8.74L108.529 5.168C108.646 5.016 108.685 4.788 108.646 4.598C108.607 4.446 108.452 4.294 108.141 4.294H105.964C105.847 4.294 105.731 4.332 105.614 4.37C105.459 4.446 105.381 4.522 105.303 4.674L103.087 7.714H102.543V0.532C102.543 0.38 102.504 0.266 102.388 0.152C102.271 0.038 102.154 0 101.999 0H99.9388C99.7833 0 99.6667 0.038 99.55 0.152C99.4334 0.266 99.3946 0.38 99.3946 0.532V13.756C99.3946 13.908 99.4723 14.06 99.55 14.136C99.6667 14.25 99.7833 14.288 99.9388 14.288H101.999C102.154 14.288 102.271 14.212 102.388 14.136C102.504 14.022 102.543 13.908 102.543 13.756V10.26H103.126L105.536 13.908C105.692 14.174 105.964 14.326 106.236 14.326H108.529C108.879 14.326 109.035 14.174 109.074 14.022C109.151 13.832 109.112 13.604 108.996 13.414ZM57.7629 4.294H55.4695C55.314 4.294 55.1197 4.332 55.003 4.484C54.8864 4.598 54.8087 4.712 54.8087 4.864L53.0983 11.02H52.6707L50.8438 4.826C50.8049 4.712 50.766 4.56 50.6494 4.446C50.5328 4.332 50.3773 4.256 50.2218 4.256H47.8506C47.5397 4.256 47.3453 4.37 47.2676 4.56C47.1898 4.75 47.1898 4.94 47.2676 5.092L50.1829 13.794C50.2218 13.908 50.2996 14.06 50.4162 14.136C50.5328 14.25 50.6883 14.288 50.8438 14.288H52.0877L51.971 14.554L51.6989 15.352C51.6212 15.58 51.4657 15.808 51.2325 15.998C51.0381 16.15 50.8049 16.226 50.5328 16.226C50.3384 16.226 50.1052 16.188 49.9108 16.112C49.7165 16.036 49.5221 15.922 49.3666 15.808C49.2112 15.694 49.0168 15.656 48.8613 15.656H48.8224C48.5892 15.656 48.3948 15.77 48.3171 15.96L47.5785 17.024C47.2676 17.48 47.4619 17.784 47.6563 17.936C48.045 18.278 48.5115 18.544 49.0168 18.734C49.561 18.924 50.1441 19 50.766 19C51.8156 19 52.7096 18.734 53.3704 18.164C54.0701 17.556 54.5755 16.758 54.8476 15.884L58.2294 5.13C58.3071 4.94 58.3071 4.75 58.2294 4.56C58.2294 4.408 58.0739 4.294 57.7629 4.294Z" fill="#011B33"/>
</svg>
