<svg width="25" height="24" viewBox="0 0 25 24" fill="none" xmlns="http://www.w3.org/2000/svg">
<path d="M18.5001 7.16C18.4401 7.15 18.3701 7.15 18.3101 7.16C16.9301 7.11 15.8301 5.98 15.8301 4.58C15.8301 3.15 16.9801 2 18.4101 2C19.8401 2 20.9901 3.16 20.9901 4.58C20.9801 5.98 19.8801 7.11 18.5001 7.16Z" stroke="#292D32" stroke-width="1.5" stroke-linecap="round" stroke-linejoin="round"/>
<path d="M17.4704 14.4402C18.8404 14.6702 20.3504 14.4302 21.4104 13.7202C22.8204 12.7802 22.8204 11.2402 21.4104 10.3002C20.3404 9.59016 18.8104 9.35016 17.4404 9.59016" stroke="#292D32" stroke-width="1.5" stroke-linecap="round" stroke-linejoin="round"/>
<path d="M6.47047 7.16C6.53047 7.15 6.60047 7.15 6.66047 7.16C8.04047 7.11 9.14047 5.98 9.14047 4.58C9.14047 3.15 7.99047 2 6.56047 2C5.13047 2 3.98047 3.16 3.98047 4.58C3.99047 5.98 5.09047 7.11 6.47047 7.16Z" stroke="#292D32" stroke-width="1.5" stroke-linecap="round" stroke-linejoin="round"/>
<path d="M7.50043 14.4402C6.13043 14.6702 4.62043 14.4302 3.56043 13.7202C2.15043 12.7802 2.15043 11.2402 3.56043 10.3002C4.63043 9.59016 6.16043 9.35016 7.53043 9.59016" stroke="#292D32" stroke-width="1.5" stroke-linecap="round" stroke-linejoin="round"/>
<path d="M12.5001 14.6288C12.4401 14.6188 12.3701 14.6188 12.3101 14.6288C10.9301 14.5788 9.83008 13.4488 9.83008 12.0488C9.83008 10.6188 10.9801 9.46875 12.4101 9.46875C13.8401 9.46875 14.9901 10.6288 14.9901 12.0488C14.9801 13.4488 13.8801 14.5888 12.5001 14.6288Z" stroke="#292D32" stroke-width="1.5" stroke-linecap="round" stroke-linejoin="round"/>
<path d="M9.58973 17.7794C8.17973 18.7194 8.17973 20.2594 9.58973 21.1994C11.1897 22.2694 13.8097 22.2694 15.4097 21.1994C16.8197 20.2594 16.8197 18.7194 15.4097 17.7794C13.8197 16.7194 11.1897 16.7194 9.58973 17.7794Z" stroke="#292D32" stroke-width="1.5" stroke-linecap="round" stroke-linejoin="round"/>
</svg>
