<svg width="88" height="88" viewBox="0 0 88 88" fill="none" xmlns="http://www.w3.org/2000/svg">
<path d="M53.4287 51.1721C47.5156 47.1906 39.9013 45.8931 32.9153 47.6834C31.0751 48.1762 32.426 52.4399 34.1476 52.0051C40.5801 50.3836 46.7931 52.1955 50.6998 54.8188C52.1515 55.8314 54.8886 52.1793 53.4287 51.1721ZM67.7277 23.801L67.5382 23.5216L67.2179 23.4095C61.9972 21.5787 55.4516 21.383 49.9065 22.9194L49.5739 23.0112L49.3667 23.2839C47.8827 25.2139 47.0805 27.5735 47.0835 29.9995C47.0835 36.1547 52.1392 41.1623 58.3536 41.1623C64.5694 41.1623 69.6265 36.1547 69.6265 29.9995C69.6275 27.7926 68.9666 25.6353 67.7277 23.801ZM58.3523 39.1358C55.9064 39.1329 53.5615 38.1693 51.832 36.4562C50.1025 34.7432 49.1296 32.4207 49.1268 29.9981C49.1268 28.3105 49.6148 26.6984 50.5035 25.2646C50.479 25.459 50.434 25.644 50.434 25.8451C50.434 27.1915 50.974 28.4827 51.9351 29.4347C52.8963 30.3868 54.2 30.9216 55.5593 30.9216C56.9186 30.9216 58.2222 30.3868 59.1834 29.4347C60.1446 28.4827 60.6845 27.1915 60.6845 25.8451C60.6845 25.2011 60.5482 24.5936 60.326 24.0279C62.3802 24.2074 64.3813 24.5976 66.2078 25.2052C67.1066 26.6452 67.5816 28.3052 67.5791 29.9981C67.5762 32.4209 66.6032 34.7437 64.8734 36.4567C63.1436 38.1698 60.7984 39.1333 58.3523 39.1358ZM40.1602 29.9995C40.1634 27.7925 39.5029 25.6346 38.2628 23.801L38.0733 23.5216L37.753 23.4095C32.5323 21.5787 25.9867 21.383 20.4416 22.9194L20.109 23.0112L19.9004 23.2839C18.4164 25.2139 17.6142 27.5735 17.6172 29.9995C17.6172 36.1547 22.673 41.1623 28.8874 41.1623C35.1031 41.1609 40.1602 36.1547 40.1602 29.9995ZM28.8874 39.1358C26.4415 39.1329 24.0966 38.1693 22.3671 36.4562C20.6376 34.7432 19.6647 32.4207 19.6619 29.9981C19.6619 28.3105 20.1498 26.6984 21.0386 25.2646C21.0141 25.459 20.9691 25.644 20.9691 25.8451C20.9691 27.1915 21.5091 28.4827 22.4702 29.4347C23.4314 30.3868 24.735 30.9216 26.0944 30.9216C27.4537 30.9216 28.7573 30.3868 29.7185 29.4347C30.6797 28.4827 31.2196 27.1915 31.2196 25.8451C31.2196 25.2011 31.0833 24.5936 30.8611 24.0279C32.9153 24.2074 34.9164 24.5976 36.7429 25.2052C37.6417 26.6452 38.1166 28.3052 38.1142 29.9981C38.1156 35.0368 33.9772 39.1358 28.8874 39.1358Z" fill="black"/>
<path d="M43.6201 3.49805C22.5342 3.49805 5.45313 20.4192 5.45313 41.3015C5.45079 48.0525 7.28483 54.6793 10.7624 60.4854C10.2281 61.6952 9.74828 62.9805 9.68421 64.5993C9.67058 64.8734 9.65286 65.169 9.63377 65.4823C9.44976 68.2595 9.1785 72.457 12.927 77.7184C15.3466 81.1099 19.1033 83.3376 23.7896 84.1531C25.4513 84.4407 27.1524 84.5514 28.9994 84.4907C32.0214 84.388 34.1424 84.28 35.3038 82.1914C36.288 80.4241 35.1552 79.3089 35.9949 78.3354C38.5043 78.8433 41.0588 79.1011 43.6201 79.105C64.706 79.105 81.7871 62.1839 81.7871 41.3015C81.7871 20.4192 64.706 3.49805 43.6201 3.49805ZM34.0934 79.0632C34.4709 81.357 33.1542 83.5253 24.2572 81.9349C9.61605 79.3183 10.6098 65.5984 12.9747 60.6556C14.7113 57.0251 14.4469 55.4805 13.4437 50.9738C12.5317 46.8843 20.3314 48.7353 20.555 53.639C20.7199 57.2762 19.3064 59.1313 21.0661 60.7312C25.0001 64.309 36.3507 62.3486 44.0236 60.7366C47.3059 60.0467 48.9935 63.3437 46.5603 65.0232C43.9595 66.8229 40.9184 67.5533 36.4202 67.8801C34.0715 68.0488 36.7214 68.7982 36.3534 71.007C36.153 72.2194 34.8703 72.1775 34.9194 73.4385C34.9453 74.1096 36.3425 74.8157 35.3924 76.5033C35.1102 77.0069 33.848 77.5848 34.0934 79.0632ZM43.6201 75.7297C41.5264 75.7297 39.4804 75.5312 37.4875 75.1761C37.4228 74.7849 37.2948 74.4065 37.1085 74.0555C36.5947 73.0592 39.1505 72.0304 38.1118 69.3544C42.0062 68.7212 44.9028 67.9773 47.5867 66.4665C50.4724 64.8423 50.5692 63.0723 50.3716 62.1623C50.0362 60.6461 48.4578 59.3959 46.4363 59.0449C45.6748 58.906 44.8927 58.923 44.1381 59.0948C39.8784 60.1182 29.6837 61.4967 24.5271 60.6002C23.0781 60.3464 22.6051 60.0048 22.4715 59.8698C21.7232 59.1259 21.8649 57.7028 22.2316 54.7596C22.6814 51.1412 19.3991 47.2839 16.4888 46.7776L16.3021 46.7466C14.6964 46.5468 13.2637 47.0045 12.3723 48.0076C11.3745 49.1228 11.1509 50.7902 11.7548 52.5751C12.2305 53.9778 12.3382 55.1039 12.2455 56.1056C10.0135 51.4838 8.85686 46.4249 8.86089 41.3015C8.86089 31.8129 12.7567 23.2085 19.0474 16.975C19.1551 17.0047 19.2546 17.0047 19.3377 16.9547C21.6394 15.63 24.2077 14.8243 26.8597 14.5949C29.5117 14.3655 32.1821 14.7181 34.6809 15.6276C35.3788 15.8949 36.4911 13.3553 35.6391 13.0353C32.3542 11.8491 28.8208 11.4999 25.364 12.02C30.8448 8.64974 37.1689 6.86687 43.6201 6.87336C53.2477 6.87336 61.973 10.7739 68.2746 17.0587C65.4006 16.0258 62.3327 15.6304 59.2876 15.9003C56.2424 16.1702 53.2942 17.0989 50.651 18.6208C49.8713 19.0825 51.4103 21.3872 52.0536 21.0078C54.355 19.6824 56.9232 18.876 59.5752 18.6459C62.2272 18.4158 64.8978 18.7677 67.3968 19.6766C67.9815 19.9021 68.8417 18.1725 68.6099 17.4084C74.6512 23.6054 78.3793 32.0275 78.3793 41.3015C78.3793 60.2856 62.7867 75.7297 43.6201 75.7297Z" fill="black"/>
</svg>
