<svg width="16" height="20" viewBox="0 0 16 20" fill="none" xmlns="http://www.w3.org/2000/svg">
<path fill-rule="evenodd" clip-rule="evenodd" d="M2.95526 0.250003C2.97013 0.250005 2.98505 0.250007 3.00001 0.250007H13.1979C14.6074 0.250007 15.75 1.3926 15.75 2.80207C15.75 3.64245 15.3363 4.42897 14.6438 4.90507L14.3625 5.09842C13.3795 5.77426 13.3795 7.22575 14.3625 7.90159L14.6438 8.09494C15.3363 8.57104 15.75 9.35756 15.75 10.1979C15.75 11.6074 14.6074 12.75 13.1979 12.75H1.75001L1.75001 19C1.75001 19.4142 1.41422 19.75 1.00001 19.75C0.585793 19.75 0.250006 19.4142 0.250006 19L0.250007 3.00001C0.250007 2.98505 0.250005 2.97013 0.250003 2.95526C0.249952 2.52244 0.249906 2.12561 0.293307 1.8028C0.3411 1.44732 0.453547 1.07159 0.76257 0.76257C1.07159 0.453547 1.44732 0.3411 1.8028 0.293307C2.12561 0.249906 2.52244 0.249952 2.95526 0.250003ZM1.75001 11.25H13.1979C13.779 11.25 14.25 10.779 14.25 10.1979C14.25 9.85151 14.0795 9.52727 13.794 9.331L13.5127 9.13765C11.6628 7.86579 11.6628 5.13422 13.5127 3.86236L13.794 3.66901C14.0795 3.47274 14.25 3.14851 14.25 2.80207C14.25 2.22103 13.779 1.75001 13.1979 1.75001H3.00001C2.5074 1.75001 2.21339 1.7516 2.00267 1.77993C1.90611 1.79291 1.85775 1.80821 1.83597 1.81717C1.83093 1.81924 1.82761 1.82086 1.82568 1.82187L1.82324 1.82324L1.82187 1.82568C1.82086 1.82761 1.81924 1.83093 1.81717 1.83597C1.80821 1.85775 1.79291 1.90611 1.77993 2.00267C1.7516 2.21339 1.75001 2.5074 1.75001 3.00001L1.75001 11.25Z" fill="#2D264B"/>
</svg>
