<svg width="20" height="21" viewBox="0 0 20 21" fill="none" xmlns="http://www.w3.org/2000/svg">
<g clip-path="url(#clip0_440_10877)">
<path d="M16.364 14.9704C16.0712 14.6775 15.5963 14.6775 15.3034 14.9704C15.0105 15.2633 15.0105 15.7382 15.3034 16.0311L16.364 14.9704ZM18.6366 19.3643C18.9295 19.6572 19.4044 19.6572 19.6973 19.3644C19.9902 19.0715 19.9902 18.5966 19.6973 18.3037L18.6366 19.3643ZM15.3034 16.0311L18.6366 19.3643L19.6973 18.3037L16.364 14.9704L15.3034 16.0311ZM9.16699 15.584C5.43907 15.584 2.41699 12.5619 2.41699 8.83398H0.916992C0.916992 13.3903 4.61064 17.084 9.16699 17.084V15.584ZM15.917 8.83398C15.917 12.5619 12.8949 15.584 9.16699 15.584V17.084C13.7233 17.084 17.417 13.3903 17.417 8.83398H15.917ZM9.16699 2.08398C12.8949 2.08398 15.917 5.10606 15.917 8.83398H17.417C17.417 4.27764 13.7233 0.583984 9.16699 0.583984V2.08398ZM9.16699 0.583984C4.61064 0.583984 0.916992 4.27764 0.916992 8.83398H2.41699C2.41699 5.10606 5.43907 2.08398 9.16699 2.08398V0.583984Z" fill="#3C41F0"/>
</g>
<defs>
<clipPath id="clip0_440_10877">
<rect width="20" height="20" fill="white" transform="translate(0 0.5)"/>
</clipPath>
</defs>
</svg>
