<svg width="25" height="24" viewBox="0 0 25 24" fill="none" xmlns="http://www.w3.org/2000/svg">
<g clip-path="url(#clip0_779_5893)">
<path fill-rule="evenodd" clip-rule="evenodd" d="M11.5 0.25C6.11522 0.25 1.75 4.61522 1.75 10C1.75 15.3848 6.11522 19.75 11.5 19.75C16.8848 19.75 21.25 15.3848 21.25 10C21.25 4.61522 16.8848 0.25 11.5 0.25ZM3.25 10C3.25 5.44365 6.94365 1.75 11.5 1.75C16.0563 1.75 19.75 5.44365 19.75 10C19.75 14.5563 16.0563 18.25 11.5 18.25C6.94365 18.25 3.25 14.5563 3.25 10Z" fill="#130F26"/>
<path d="M20.0304 17.4698C19.7375 17.1769 19.2626 17.1769 18.9697 17.4698C18.6768 17.7626 18.6768 18.2375 18.9697 18.5304L22.9696 22.5304C23.2625 22.8233 23.7374 22.8233 24.0303 22.5304C24.3232 22.2375 24.3232 21.7626 24.0303 21.4697L20.0304 17.4698Z" fill="#130F26"/>
</g>
<defs>
<clipPath id="clip0_779_5893">
<rect width="24" height="24" fill="white" transform="translate(0.5)"/>
</clipPath>
</defs>
</svg>
