<svg width="25" height="24" viewBox="0 0 25 24" fill="none" xmlns="http://www.w3.org/2000/svg">
<path d="M9.5 22H15.5C20.5 22 22.5 20 22.5 15V9C22.5 4 20.5 2 15.5 2H9.5C4.5 2 2.5 4 2.5 9V15C2.5 20 4.5 22 9.5 22Z" stroke="#5D70F9" stroke-width="1.5" stroke-linecap="round" stroke-linejoin="round"/>
<path d="M16.0703 18.5016V14.6016" stroke="#5D70F9" stroke-width="1.5" stroke-miterlimit="10" stroke-linecap="round" stroke-linejoin="round"/>
<path d="M16.0703 7.45V5.5" stroke="#5D70F9" stroke-width="1.5" stroke-miterlimit="10" stroke-linecap="round" stroke-linejoin="round"/>
<path d="M16.0697 12.6531C17.5057 12.6531 18.6697 11.4891 18.6697 10.0531C18.6697 8.61718 17.5057 7.45312 16.0697 7.45312C14.6338 7.45312 13.4697 8.61718 13.4697 10.0531C13.4697 11.4891 14.6338 12.6531 16.0697 12.6531Z" stroke="#5D70F9" stroke-width="1.5" stroke-miterlimit="10" stroke-linecap="round" stroke-linejoin="round"/>
<path d="M8.92969 18.4969V16.5469" stroke="#5D70F9" stroke-width="1.5" stroke-miterlimit="10" stroke-linecap="round" stroke-linejoin="round"/>
<path d="M8.92969 9.4V5.5" stroke="#5D70F9" stroke-width="1.5" stroke-miterlimit="10" stroke-linecap="round" stroke-linejoin="round"/>
<path d="M8.93008 16.5516C10.366 16.5516 11.5301 15.3875 11.5301 13.9516C11.5301 12.5156 10.366 11.3516 8.93008 11.3516C7.49414 11.3516 6.33008 12.5156 6.33008 13.9516C6.33008 15.3875 7.49414 16.5516 8.93008 16.5516Z" stroke="#5D70F9" stroke-width="1.5" stroke-miterlimit="10" stroke-linecap="round" stroke-linejoin="round"/>
</svg>
