<svg width="23" height="24" viewBox="0 0 23 24" fill="none" xmlns="http://www.w3.org/2000/svg">
<path d="M7.31231 20.9384L7.18321 21.6772H7.18322L7.31231 20.9384ZM3.54505 16.7822L4.28744 16.6756L3.54505 16.7822ZM19.7487 16.7822L20.4911 16.8887V16.8887L19.7487 16.7822ZM15.9815 20.9384L16.1106 21.6772H16.1106L15.9815 20.9384ZM19.5184 10.5779C19.2853 10.2355 18.8188 10.1469 18.4764 10.38C18.134 10.6132 18.0454 11.0797 18.2785 11.4221L19.5184 10.5779ZM5.01529 11.4221C5.2484 11.0797 5.15981 10.6132 4.81741 10.38C4.47502 10.1469 4.00848 10.2355 3.77537 10.5779L5.01529 11.4221ZM10.8969 17C10.8969 17.4142 11.2327 17.75 11.6469 17.75C12.0611 17.75 12.3969 17.4142 12.3969 17H10.8969ZM7.41225 6.5623C7.17051 6.89866 7.24722 7.3673 7.58358 7.60903C7.91994 7.85077 8.38858 7.77406 8.63031 7.4377L7.41225 6.5623ZM9.28829 5.23703L8.67926 4.79933L9.28829 5.23703ZM14.0055 5.23703L14.6145 4.79933L14.0055 5.23703ZM14.6635 7.4377C14.9052 7.77406 15.3739 7.85077 15.7102 7.60903C16.0466 7.3673 16.1233 6.89866 15.8815 6.5623L14.6635 7.4377ZM11.4197 3.01989L11.2898 2.28121L11.2898 2.28121L11.4197 3.01989ZM11.8741 3.01989L12.0039 2.28121L12.0039 2.28121L11.8741 3.01989ZM19.0545 14V15H20.5545V14H19.0545ZM14.3661 20.25H8.92768V21.75H14.3661V20.25ZM4.23926 15V14H2.73926V15H4.23926ZM8.92768 20.25C8.05412 20.25 7.71351 20.2472 7.44141 20.1996L7.18322 21.6772C7.61569 21.7528 8.11713 21.75 8.92768 21.75V20.25ZM2.73926 15C2.73926 15.903 2.73734 16.4337 2.80267 16.8887L4.28744 16.6756C4.24118 16.3533 4.23926 15.9551 4.23926 15H2.73926ZM7.44141 20.1996C5.86211 19.9237 4.55455 18.5362 4.28744 16.6756L2.80267 16.8887C3.14984 19.3071 4.88408 21.2755 7.18321 21.6772L7.44141 20.1996ZM19.0545 15C19.0545 15.9551 19.0526 16.3533 19.0063 16.6756L20.4911 16.8887C20.5564 16.4337 20.5545 15.903 20.5545 15H19.0545ZM14.3661 21.75C15.1767 21.75 15.6781 21.7528 16.1106 21.6772L15.8524 20.1996C15.5803 20.2472 15.2397 20.25 14.3661 20.25V21.75ZM19.0063 16.6756C18.7392 18.5362 17.4317 19.9237 15.8524 20.1996L16.1106 21.6772C18.4097 21.2755 20.1439 19.3071 20.4911 16.8887L19.0063 16.6756ZM20.5545 14C20.5545 12.7241 20.1722 11.5382 19.5184 10.5779L18.2785 11.4221C18.7626 12.1331 19.0545 13.0247 19.0545 14H20.5545ZM4.23926 14C4.23926 13.0247 4.53123 12.1331 5.01529 11.4221L3.77537 10.5779C3.12155 11.5382 2.73926 12.7241 2.73926 14H4.23926ZM12.3969 17V4H10.8969V17H12.3969ZM8.63031 7.4377L9.89732 5.67473L8.67926 4.79933L7.41225 6.5623L8.63031 7.4377ZM13.3965 5.67473L14.6635 7.4377L15.8815 6.5623L14.6145 4.79933L13.3965 5.67473ZM9.89732 5.67473C10.4132 4.95688 10.7638 4.47095 11.0586 4.14444C11.3552 3.81598 11.4934 3.76843 11.5495 3.75856L11.2898 2.28121C10.7302 2.37959 10.3079 2.73764 9.94532 3.13921C9.58098 3.54272 9.17378 4.11124 8.67926 4.79933L9.89732 5.67473ZM14.6145 4.79933C14.12 4.11124 13.7128 3.54272 13.3485 3.13921C12.9859 2.73765 12.5636 2.37959 12.0039 2.28121L11.7443 3.75856C11.8004 3.76843 11.9386 3.81598 12.2351 4.14444C12.53 4.47095 12.8806 4.95688 13.3965 5.67473L14.6145 4.79933ZM11.5495 3.75856C11.5824 3.75279 11.6148 3.75 11.6469 3.75V2.25C11.5272 2.25 11.4079 2.26047 11.2898 2.28121L11.5495 3.75856ZM11.6469 3.75C11.679 3.75 11.7114 3.75279 11.7443 3.75856L12.0039 2.28121C11.8859 2.26047 11.7666 2.25 11.6469 2.25V3.75ZM12.3969 4V3H10.8969V4H12.3969Z" fill="#2D264B"/>
</svg>
