<svg width="75" height="36" viewBox="0 0 75 36" fill="none" xmlns="http://www.w3.org/2000/svg">
<path fill-rule="evenodd" clip-rule="evenodd" d="M66.3465 18.3478C66.3465 14.2058 64.3593 10.9375 60.5612 10.9375C56.7471 10.9375 54.4395 14.2058 54.4395 18.3155C54.4395 23.1856 57.1638 25.6449 61.0741 25.6449C62.9811 25.6449 64.4234 25.2081 65.5132 24.5932V21.3573C64.4234 21.9074 63.1734 22.2472 61.5869 22.2472C60.0324 22.2472 58.6542 21.6971 58.4779 19.7878H66.3144C66.3144 19.5775 66.3465 18.7362 66.3465 18.3478ZM58.4298 16.8108C58.4298 14.9824 59.5356 14.222 60.5452 14.222C61.5228 14.222 62.5645 14.9824 62.5645 16.8108H58.4298Z" fill="#635BFF"/>
<path fill-rule="evenodd" clip-rule="evenodd" d="M48.2539 10.9375C46.6834 10.9375 45.6738 11.6818 45.1129 12.1995L44.9045 11.1964H41.3789V30.062L45.3853 29.2045L45.4013 24.6256C45.9783 25.0463 46.8276 25.6449 48.2379 25.6449C51.1065 25.6449 53.7186 23.315 53.7186 18.186C53.7026 13.4939 51.0584 10.9375 48.2539 10.9375ZM47.2924 22.0854C46.3469 22.0854 45.786 21.7456 45.4013 21.3249L45.3853 15.3222C45.802 14.853 46.3789 14.5294 47.2924 14.5294C48.7507 14.5294 49.7603 16.1797 49.7603 18.2993C49.7603 20.4674 48.7667 22.0854 47.2924 22.0854Z" fill="#635BFF"/>
<path fill-rule="evenodd" clip-rule="evenodd" d="M35.8662 9.98242L39.8886 9.10871V5.82422L35.8662 6.68175V9.98242Z" fill="#635BFF"/>
<path d="M39.8886 11.2109H35.8662V25.3682H39.8886V11.2109Z" fill="#635BFF"/>
<path fill-rule="evenodd" clip-rule="evenodd" d="M31.5549 12.4075L31.2985 11.2102H27.8369V25.3675H31.8433V15.7729C32.7888 14.5271 34.3914 14.7536 34.8882 14.9316V11.2102C34.3754 11.0161 32.5004 10.6601 31.5549 12.4075Z" fill="#635BFF"/>
<path fill-rule="evenodd" clip-rule="evenodd" d="M23.5425 7.69922L19.6322 8.54057L19.6162 21.5006C19.6162 23.8952 21.3951 25.6588 23.7669 25.6588C25.081 25.6588 26.0425 25.4161 26.5713 25.1248V21.8403C26.0585 22.0507 23.5265 22.7949 23.5265 20.4003V14.6565H26.5713V11.2102H23.5265L23.5425 7.69922Z" fill="#635BFF"/>
<path fill-rule="evenodd" clip-rule="evenodd" d="M12.7088 15.3222C12.7088 14.6912 13.2216 14.4485 14.071 14.4485C15.2889 14.4485 16.8274 14.8206 18.0453 15.484V11.6818C16.7152 11.1478 15.4011 10.9375 14.071 10.9375C10.8178 10.9375 8.6543 12.6526 8.6543 15.5164C8.6543 19.982 14.744 19.2701 14.744 21.1955C14.744 21.9397 14.103 22.1824 13.2056 22.1824C11.8755 22.1824 10.1767 21.6323 8.83058 20.8881V24.7388C10.321 25.386 11.8274 25.6611 13.2056 25.6611C16.5389 25.6611 18.8306 23.9946 18.8306 21.0984C18.8146 16.2768 12.7088 17.1344 12.7088 15.3222Z" fill="#635BFF"/>
</svg>
