<svg width="18" height="19" viewBox="0 0 18 19" fill="none" xmlns="http://www.w3.org/2000/svg">
<path d="M14.625 9.74609C14.625 8.71109 15.465 7.87109 16.5 7.87109V7.12109C16.5 4.12109 15.75 3.37109 12.75 3.37109H5.25C2.25 3.37109 1.5 4.12109 1.5 7.12109V7.49609C2.535 7.49609 3.375 8.33609 3.375 9.37109C3.375 10.4061 2.535 11.2461 1.5 11.2461V11.6211C1.5 14.6211 2.25 15.3711 5.25 15.3711H12.75C15.75 15.3711 16.5 14.6211 16.5 11.6211C15.465 11.6211 14.625 10.7811 14.625 9.74609Z" stroke="#3C41F0" stroke-width="1.5" stroke-linecap="round" stroke-linejoin="round"/>
<path d="M7.5 3.37109L7.5 15.3711" stroke="#3C41F0" stroke-width="1.5" stroke-linecap="round" stroke-linejoin="round" stroke-dasharray="5 5"/>
</svg>
