<svg width="25" height="24" viewBox="0 0 25 24" fill="none" xmlns="http://www.w3.org/2000/svg">
<path fill-rule="evenodd" clip-rule="evenodd" d="M9.31658 8.09274C9.31658 8.47701 9.00641 8.78889 8.62423 8.78889C8.24204 8.78889 7.93187 8.47701 7.93187 8.09274C7.93187 5.55968 9.98125 3.5 12.5005 3.5C15.0188 3.5 17.0682 5.55968 17.0682 8.09274C17.0682 10.6258 15.0188 12.6855 12.5005 12.6855C11.4694 12.6855 10.4973 12.3523 9.69046 11.7211C9.38859 11.4853 9.33412 11.0481 9.5686 10.7446C9.80216 10.4402 10.2388 10.3863 10.5407 10.623C11.1019 11.0611 11.7795 11.2932 12.5005 11.2932C14.2563 11.2932 15.6835 9.85725 15.6835 8.09274C15.6835 6.32823 14.2563 4.8923 12.5005 4.8923C10.7447 4.8923 9.31658 6.32823 9.31658 8.09274ZM7.5207 10.9852C7.5207 11.3695 7.21052 11.6813 6.82834 11.6813C4.83527 11.6813 3.21331 10.0514 3.21331 8.04744C3.21331 6.04346 4.83527 4.41261 6.82834 4.41261C7.21052 4.41261 7.5207 4.72448 7.5207 5.10876C7.5207 5.49303 7.21052 5.80491 6.82834 5.80491C5.59871 5.80491 4.59803 6.81108 4.59803 8.04744C4.59803 9.28381 5.59871 10.289 6.82834 10.289C7.21052 10.289 7.5207 10.6009 7.5207 10.9852ZM5.53114 14.872C5.08618 14.9017 4.63938 14.9676 4.20273 15.066C3.53253 15.1988 3.07188 15.4252 2.9528 15.6759C2.86325 15.8661 2.86325 16.0861 2.9528 16.2764C3.01003 16.3961 3.24267 16.6941 4.19073 16.8899C4.56553 16.967 4.80647 17.3346 4.72985 17.7114C4.66338 18.0409 4.37444 18.2674 4.05226 18.2674C4.00611 18.2674 3.95995 18.2628 3.91287 18.2535C2.76725 18.0177 2.02412 17.5536 1.70286 16.8742C1.43238 16.3033 1.43238 15.6489 1.70286 15.0781C2.02781 14.3922 2.77278 13.929 3.91748 13.7025C4.40583 13.593 4.92371 13.5178 5.4379 13.4835C5.80716 13.4547 6.14965 13.7471 6.17549 14.1304C6.20134 14.5147 5.91332 14.847 5.53114 14.872ZM18.1833 10.3117C17.8011 10.3117 17.4909 10.6236 17.4909 11.0078C17.4909 11.3921 17.8011 11.704 18.1833 11.704C20.1717 11.704 21.79 10.0769 21.79 8.07752C21.79 6.07724 20.1717 4.45103 18.1833 4.45103C17.8011 4.45103 17.4909 4.76198 17.4909 5.14719C17.4909 5.53146 17.8011 5.84334 18.1833 5.84334C19.4083 5.84334 20.4053 6.84579 20.4053 8.07752C20.4053 9.30924 19.4083 10.3117 18.1833 10.3117ZM21.1028 13.7196C22.23 13.9442 22.9731 14.4055 23.2971 15.0878C23.5676 15.6586 23.5676 16.312 23.2971 16.8829C22.9768 17.5596 22.2355 18.0227 21.0917 18.2594C21.0456 18.2696 20.9985 18.2743 20.9514 18.2743C20.6302 18.2743 20.3422 18.0469 20.2748 17.7183C20.1981 17.3414 20.4391 16.9729 20.8139 16.8959C21.7583 16.7 21.9909 16.403 22.0472 16.2842C22.1367 16.0949 22.1367 15.8767 22.0472 15.6874C21.929 15.4377 21.4702 15.2121 20.8185 15.0822C20.3652 14.9819 19.9184 14.916 19.4772 14.8863C19.095 14.8613 18.807 14.528 18.8328 14.1447C18.8577 13.7614 19.191 13.4773 19.5695 13.4977C20.0818 13.5321 20.5969 13.6073 21.1028 13.7196ZM12.5002 14.126C10.833 14.126 5.76036 14.126 5.76036 17.3218C5.76036 18.0431 6.04284 19.0418 7.38878 19.7055C7.80235 19.9078 8.30269 20.073 8.87689 20.1965C9.24892 20.28 9.61817 20.0368 9.69757 19.6609C9.77788 19.285 9.53878 18.9146 9.16491 18.8348C8.70149 18.7355 8.30823 18.6074 7.99806 18.4542C7.242 18.082 7.14507 17.6541 7.14507 17.3218C7.14507 15.8311 10.0576 15.5183 12.5002 15.5183C16.0543 15.5183 17.8554 16.1189 17.8554 17.3051C17.8554 18.7949 14.9429 19.1077 12.5002 19.1077C12.118 19.1077 11.8079 19.4196 11.8079 19.8038C11.8079 20.1881 12.118 20.5 12.5002 20.5C14.1674 20.5 19.2401 20.5 19.2401 17.3051C19.2401 14.126 14.3438 14.126 12.5002 14.126Z" fill="black"/>
</svg>
