<svg width="23" height="24" viewBox="0 0 23 24" fill="none" xmlns="http://www.w3.org/2000/svg">
<g clip-path="url(#clip0_440_3681)">
<path d="M12.7119 10C13.8165 10 14.7119 10.8954 14.7119 12C14.7119 13.1046 13.8165 14 12.7119 14C11.6073 14 10.7119 13.1046 10.7119 12C10.7119 10.8954 11.6073 10 12.7119 10Z" fill="#2D264B"/>
<path d="M4.71191 10C5.81648 10 6.71191 10.8954 6.71191 12C6.71191 13.1046 5.81648 14 4.71191 14C3.60734 14 2.71191 13.1046 2.71191 12C2.71191 10.8954 3.60734 10 4.71191 10Z" fill="#2D264B"/>
<path d="M20.7119 10C21.8165 10 22.7119 10.8954 22.7119 12C22.7119 13.1046 21.8165 14 20.7119 14C19.6073 14 18.7119 13.1046 18.7119 12C18.7119 10.8954 19.6073 10 20.7119 10Z" fill="#2D264B"/>
</g>
<defs>
<clipPath id="clip0_440_3681">
<rect width="21.7537" height="24" fill="white" transform="translate(0.711914)"/>
</clipPath>
</defs>
</svg>
