<svg width="36" height="35" viewBox="0 0 36 35" fill="none" xmlns="http://www.w3.org/2000/svg">
<path d="M25.0039 9.625C25.0039 8.46468 24.543 7.35188 23.7225 6.53141C22.902 5.71094 21.7892 5.25 20.6289 5.25H10.1289C8.96858 5.25 7.85579 5.71094 7.03531 6.53141C6.21484 7.35188 5.75391 8.46468 5.75391 9.625V15.05C7.42253 14.1976 9.30368 13.8508 11.1666 14.0521C13.0295 14.2533 14.7931 14.994 16.2411 16.1832C17.6892 17.3724 18.7586 18.9584 19.3182 20.7466C19.8779 22.5348 19.9034 24.4475 19.3917 26.25H20.6289C21.7892 26.25 22.902 25.7891 23.7225 24.9686C24.543 24.1481 25.0039 23.0353 25.0039 21.875V9.625ZM26.7539 12.1275V19.3935L31.5909 23.506C31.7819 23.6685 32.0154 23.7728 32.2638 23.8068C32.5122 23.8407 32.7651 23.8028 32.9926 23.6975C33.2202 23.5922 33.4128 23.4239 33.5477 23.2126C33.6826 23.0013 33.7542 22.7557 33.7539 22.505V9.08775C33.7535 8.8385 33.6821 8.59453 33.5481 8.38437C33.4141 8.17421 33.223 8.00655 32.9972 7.901C32.7714 7.79544 32.5203 7.75636 32.2731 7.78833C32.0259 7.82029 31.7929 7.92198 31.6014 8.0815L26.7539 12.1275ZM18.0039 23.625C18.0039 25.7136 17.1742 27.7166 15.6974 29.1935C14.2205 30.6703 12.2175 31.5 10.1289 31.5C8.04033 31.5 6.03729 30.6703 4.56044 29.1935C3.08359 27.7166 2.25391 25.7136 2.25391 23.625C2.25391 21.5364 3.08359 19.5334 4.56044 18.0565C6.03729 16.5797 8.04033 15.75 10.1289 15.75C12.2175 15.75 14.2205 16.5797 15.6974 18.0565C17.1742 19.5334 18.0039 21.5364 18.0039 23.625ZM11.0039 20.125C11.0039 19.8929 10.9117 19.6704 10.7476 19.5063C10.5835 19.3422 10.361 19.25 10.1289 19.25C9.89684 19.25 9.67428 19.3422 9.51019 19.5063C9.34609 19.6704 9.25391 19.8929 9.25391 20.125V22.75H6.62891C6.39684 22.75 6.17428 22.8422 6.01019 23.0063C5.84609 23.1704 5.75391 23.3929 5.75391 23.625C5.75391 23.8571 5.84609 24.0796 6.01019 24.2437C6.17428 24.4078 6.39684 24.5 6.62891 24.5H9.25391V27.125C9.25391 27.3571 9.34609 27.5796 9.51019 27.7437C9.67428 27.9078 9.89684 28 10.1289 28C10.361 28 10.5835 27.9078 10.7476 27.7437C10.9117 27.5796 11.0039 27.3571 11.0039 27.125V24.5H13.6289C13.861 24.5 14.0835 24.4078 14.2476 24.2437C14.4117 24.0796 14.5039 23.8571 14.5039 23.625C14.5039 23.3929 14.4117 23.1704 14.2476 23.0063C14.0835 22.8422 13.861 22.75 13.6289 22.75H11.0039V20.125Z" fill="black"/>
</svg>
