<svg width="22" height="22" viewBox="0 0 22 22" fill="none" xmlns="http://www.w3.org/2000/svg">
<path d="M14.6365 11.1137C14.2222 11.1137 13.8865 11.4494 13.8865 11.8637C13.8865 12.2779 14.2222 12.6137 14.6365 12.6137H17.3637C17.7779 12.6137 18.1137 12.2779 18.1137 11.8637C18.1137 11.4494 17.7779 11.1137 17.3637 11.1137H14.6365Z" fill="#2D264B"/>
<path fill-rule="evenodd" clip-rule="evenodd" d="M18.6476 2.37747C18.725 2.82143 18.7437 3.34902 18.7489 3.95264C18.8357 3.99789 18.9208 4.04606 19.0045 4.09732C19.7782 4.57144 20.4287 5.22194 20.9028 5.99564C21.4248 6.84749 21.6146 7.83477 21.693 9.0896C21.7501 10.0025 21.7501 11.1128 21.7501 12.4765V12.5048C21.7501 13.2868 21.7501 13.9834 21.7398 14.6034C21.7078 16.5313 21.583 17.8944 20.9028 19.0044C20.4287 19.7781 19.7782 20.4286 19.0045 20.9027C18.2656 21.3554 17.4275 21.5572 16.404 21.6545C15.3998 21.75 14.1429 21.75 12.5395 21.75H9.46072C7.85738 21.75 6.60037 21.75 5.5962 21.6545C4.57265 21.5572 3.73455 21.3554 2.99573 20.9027C2.22203 20.4286 1.57153 19.7781 1.09741 19.0044C0.644664 18.2656 0.442882 17.4274 0.345563 16.4039C0.250084 15.3997 0.250089 14.1427 0.250095 12.5394L0.250175 12.0136C0.236998 11.5195 0.241045 10.967 0.245408 10.3713C0.247708 10.0574 0.250095 9.73141 0.250095 9.39563L0.250095 9.35227C0.250087 7.64004 0.250081 6.29622 0.360918 5.22968C0.473965 4.14188 0.709045 3.25462 1.23922 2.49386C1.55954 2.03422 1.94815 1.62873 2.39147 1.29294C3.12978 0.733705 3.99376 0.4851 5.04738 0.366092C6.0753 0.249986 7.36846 0.249994 9.00656 0.250004L14.4746 0.250001C15.2732 0.249967 15.95 0.249937 16.4896 0.325571C17.066 0.406355 17.5949 0.586067 18.0181 1.02728C18.3855 1.41026 18.5595 1.87228 18.6476 2.37747ZM14.4219 1.75C15.2876 1.75 15.8582 1.75173 16.2814 1.81105C16.6797 1.86688 16.8347 1.96039 16.9356 2.06563C17.029 2.16295 17.1132 2.30988 17.1699 2.63506C17.2078 2.85249 17.2284 3.11824 17.2394 3.45819C16.8266 3.38265 16.3812 3.33609 15.896 3.30615C14.986 3.25 13.8801 3.25 12.5233 3.25H9.46074C7.85735 3.25 6.60039 3.24999 5.5962 3.34547C4.57265 3.44279 3.73455 3.64457 2.99573 4.09732C2.59745 4.34139 2.23181 4.6322 1.90608 4.96249C2.01584 4.23516 2.19559 3.74505 2.46986 3.35149C2.70144 3.01919 2.98085 2.72824 3.29716 2.48865C3.73489 2.15709 4.29774 1.9603 5.21573 1.85661C6.14969 1.75112 7.35816 1.75 9.05317 1.75H14.4219ZM3.77948 5.37628C4.243 5.09224 4.82443 4.92562 5.73818 4.83874C6.6631 4.7508 7.84886 4.75 9.5001 4.75H12.5001C13.8847 4.75 14.945 4.75033 15.8036 4.80331C16.6614 4.85624 17.2611 4.95942 17.7338 5.13895C17.9109 5.2062 18.0711 5.28461 18.2207 5.37628C18.7926 5.72672 19.2734 6.20752 19.6238 6.77939C19.8704 7.18183 20.0276 7.671 20.1217 8.38638H14.6365C12.716 8.38638 11.1592 9.94321 11.1592 11.8637C11.1592 13.7841 12.716 15.3409 14.6365 15.3409H20.2194C20.1617 16.8013 20.0023 17.603 19.6238 18.2206C19.2734 18.7925 18.7926 19.2733 18.2207 19.6237C17.7572 19.9078 17.1758 20.0744 16.262 20.1613C15.3371 20.2492 14.1513 20.25 12.5001 20.25H9.5001C7.84886 20.25 6.6631 20.2492 5.73818 20.1613C4.82443 20.0744 4.243 19.9078 3.77948 19.6237C3.20762 19.2733 2.72681 18.7925 2.37637 18.2206C2.09233 17.7571 1.92571 17.1757 1.83883 16.2619C1.75089 15.337 1.7501 14.1512 1.7501 12.5C1.7501 10.8488 1.75089 9.66301 1.83883 8.73809C1.92571 7.82434 2.09233 7.24291 2.37637 6.77939C2.72681 6.20752 3.20762 5.72672 3.77948 5.37628ZM12.6592 11.8637C12.6592 10.7716 13.5444 9.88638 14.6365 9.88638H20.2277C20.2499 10.6103 20.2501 11.4644 20.2501 12.5C20.2501 12.9839 20.2501 13.429 20.2477 13.8409H14.6365C13.5444 13.8409 12.6592 12.9557 12.6592 11.8637Z" fill="#2D264B"/>
</svg>
