<svg width="25" height="24" viewBox="0 0 25 24" fill="none" xmlns="http://www.w3.org/2000/svg">
<path d="M14.7617 15.4375H9.76172" stroke="#12299C" stroke-miterlimit="10" stroke-linecap="round" stroke-linejoin="round"/>
<path d="M12.2617 13V18" stroke="#12299C" stroke-miterlimit="10" stroke-linecap="round" stroke-linejoin="round"/>
<path d="M13.1609 2.51814L13.1309 2.58814L10.2309 9.31814H7.38094C6.70094 9.31814 6.05094 9.45814 5.46094 9.70814L7.21094 5.52814L7.25094 5.42814L7.32094 5.26814C7.34094 5.20814 7.36094 5.14814 7.39094 5.09814C8.70094 2.06814 10.1809 1.37814 13.1609 2.51814Z" stroke="#12299C" stroke-linecap="round" stroke-linejoin="round"/>
<path d="M18.5505 9.51953C18.1005 9.37953 17.6205 9.31953 17.1405 9.31953H10.2305L13.1305 2.58953L13.1605 2.51953C13.3105 2.56953 13.4505 2.63953 13.6005 2.69953L15.8105 3.62953C17.0405 4.13953 17.9005 4.66953 18.4205 5.30953C18.5205 5.42953 18.6005 5.53953 18.6705 5.66953C18.7605 5.80953 18.8305 5.94953 18.8705 6.09953C18.9105 6.18953 18.9405 6.27953 18.9605 6.35953C19.2305 7.19953 19.0705 8.22953 18.5505 9.51953Z" stroke="#12299C" stroke-linecap="round" stroke-linejoin="round"/>
<path d="M22.0217 14.2003V16.1503C22.0217 16.3503 22.0117 16.5503 22.0017 16.7503C21.8117 20.2403 19.8617 22.0003 16.1617 22.0003H8.36172C8.12172 22.0003 7.88172 21.9803 7.65172 21.9503C4.47172 21.7403 2.77172 20.0403 2.56172 16.8603C2.53172 16.6303 2.51172 16.3903 2.51172 16.1503V14.2003C2.51172 12.1903 3.73172 10.4603 5.47172 9.71031C6.07172 9.46031 6.71172 9.32031 7.39172 9.32031H17.1517C17.6417 9.32031 18.1217 9.39031 18.5617 9.52031C20.5517 10.1303 22.0217 11.9903 22.0217 14.2003Z" stroke="#12299C" stroke-linecap="round" stroke-linejoin="round"/>
<path d="M7.21 5.52734L5.46 9.70734C3.72 10.4573 2.5 12.1873 2.5 14.1973V11.2673C2.5 8.42734 4.52 6.05734 7.21 5.52734Z" stroke="#12299C" stroke-linecap="round" stroke-linejoin="round"/>
<path d="M22.0186 11.2677V14.1977C22.0186 11.9977 20.5586 10.1277 18.5586 9.52766C19.0786 8.22766 19.2286 7.20766 18.9786 6.35766C18.9586 6.26766 18.9286 6.17766 18.8886 6.09766C20.7486 7.05766 22.0186 9.02766 22.0186 11.2677Z" stroke="#12299C" stroke-linecap="round" stroke-linejoin="round"/>
</svg>
